%TF.GenerationSoftware,KiCad,Pcbnew,8.0.1*%
%TF.CreationDate,2026-07-01T23:19:03+09:00*%
%TF.ProjectId,bass_compressor,62617373-5f63-46f6-9d70-726573736f72,rev?*%
%TF.SameCoordinates,Original*%
%TF.FileFunction,Legend,Top*%
%TF.FilePolarity,Positive*%
%FSLAX46Y46*%
G04 Gerber Fmt 4.6, Leading zero omitted, Abs format (unit mm)*
G04 Created by KiCad (PCBNEW 8.0.1) date 2026-07-01 23:19:03*
%MOMM*%
%LPD*%
G01*
G04 APERTURE LIST*
G04 Aperture macros list*
%AMRoundRect*
0 Rectangle with rounded corners*
0 $1 Rounding radius*
0 $2 $3 $4 $5 $6 $7 $8 $9 X,Y pos of 4 corners*
0 Add a 4 corners polygon primitive as box body*
4,1,4,$2,$3,$4,$5,$6,$7,$8,$9,$2,$3,0*
0 Add four circle primitives for the rounded corners*
1,1,$1+$1,$2,$3*
1,1,$1+$1,$4,$5*
1,1,$1+$1,$6,$7*
1,1,$1+$1,$8,$9*
0 Add four rect primitives between the rounded corners*
20,1,$1+$1,$2,$3,$4,$5,0*
20,1,$1+$1,$4,$5,$6,$7,0*
20,1,$1+$1,$6,$7,$8,$9,0*
20,1,$1+$1,$8,$9,$2,$3,0*%
G04 Aperture macros list end*
%ADD10C,0.150000*%
%ADD11C,0.500000*%
%ADD12R,1.600000X1.600000*%
%ADD13C,1.600000*%
%ADD14O,1.600000X1.600000*%
%ADD15R,1.300000X1.300000*%
%ADD16C,1.300000*%
%ADD17O,2.000000X3.000000*%
%ADD18R,3.000000X2.000000*%
%ADD19O,3.000000X2.000000*%
%ADD20C,3.200000*%
%ADD21R,1.800000X1.800000*%
%ADD22C,1.800000*%
%ADD23RoundRect,0.750000X-1.250000X-0.750000X1.250000X-0.750000X1.250000X0.750000X-1.250000X0.750000X0*%
%ADD24C,3.000000*%
%ADD25C,2.200000*%
%ADD26C,1.700000*%
%ADD27C,4.000000*%
%ADD28R,1.700000X1.700000*%
%ADD29O,1.700000X1.700000*%
%ADD30C,2.000000*%
G04 APERTURE END LIST*
D10*
G36*
X166881452Y-80137242D02*
G01*
X167110945Y-80229291D01*
X167251919Y-80322714D01*
X167442142Y-80492844D01*
X167602484Y-80686331D01*
X167692778Y-80828297D01*
X167806980Y-81053096D01*
X167896797Y-81287855D01*
X167943126Y-81449895D01*
X167992986Y-81697992D01*
X168019834Y-81949524D01*
X168024948Y-82119120D01*
X168013839Y-82371933D01*
X167980512Y-82622041D01*
X167924967Y-82869444D01*
X167884508Y-83005722D01*
X167791504Y-83241758D01*
X167670486Y-83462146D01*
X167521453Y-83666884D01*
X167426553Y-83773866D01*
X167235199Y-83937839D01*
X167018343Y-84053318D01*
X166775984Y-84120305D01*
X166630321Y-84136566D01*
X164244069Y-84136566D01*
X163987746Y-84100062D01*
X163755960Y-84013906D01*
X163548710Y-83878097D01*
X163444173Y-83781193D01*
X163278386Y-83584268D01*
X163142352Y-83371308D01*
X163036071Y-83142313D01*
X162989881Y-83008164D01*
X162925535Y-82761083D01*
X162882248Y-82511683D01*
X162860019Y-82259965D01*
X162856769Y-82119120D01*
X163696965Y-82119120D01*
X163715588Y-82363974D01*
X163771459Y-82605163D01*
X163871903Y-82830172D01*
X164021808Y-83026482D01*
X164231137Y-83171300D01*
X164455339Y-83220655D01*
X166398290Y-83220655D01*
X166649587Y-83159164D01*
X166831821Y-83026482D01*
X166981420Y-82830172D01*
X167080949Y-82605163D01*
X167137736Y-82363974D01*
X167156664Y-82119120D01*
X167134262Y-81861072D01*
X167077286Y-81637962D01*
X166975925Y-81415090D01*
X166828158Y-81217864D01*
X166621687Y-81069235D01*
X166398290Y-81018806D01*
X164455339Y-81018806D01*
X164205076Y-81081676D01*
X164025471Y-81217864D01*
X163877399Y-81415090D01*
X163775122Y-81637962D01*
X163716504Y-81876099D01*
X163696965Y-82119120D01*
X162856769Y-82119120D01*
X162867588Y-81866994D01*
X162900046Y-81617573D01*
X162954142Y-81370857D01*
X162993545Y-81234961D01*
X163084778Y-80998044D01*
X163204605Y-80776390D01*
X163353026Y-80569999D01*
X163447837Y-80461933D01*
X163639684Y-80296768D01*
X163856648Y-80181836D01*
X164098727Y-80117135D01*
X164244069Y-80102896D01*
X164374738Y-80102896D01*
X166500872Y-80102896D01*
X166630321Y-80102896D01*
X166881452Y-80137242D01*
G37*
G36*
X170957083Y-84306315D02*
G01*
X170691927Y-84294809D01*
X170429519Y-84260290D01*
X170256106Y-84224494D01*
X170001941Y-84152137D01*
X169756019Y-84057798D01*
X169596650Y-83982693D01*
X169371737Y-83847024D01*
X169167775Y-83681816D01*
X169043440Y-83555268D01*
X168894662Y-83341174D01*
X168807364Y-83098229D01*
X168783322Y-82920237D01*
X168783322Y-82633251D01*
X168783322Y-80096789D01*
X169699232Y-80096789D01*
X169699232Y-82708967D01*
X169769071Y-82945386D01*
X169860433Y-83060676D01*
X170056972Y-83213328D01*
X170187718Y-83282937D01*
X170419940Y-83369472D01*
X170563852Y-83406280D01*
X170809049Y-83440913D01*
X170957083Y-83446580D01*
X171203997Y-83430838D01*
X171350314Y-83406280D01*
X171588833Y-83338636D01*
X171726448Y-83282937D01*
X171939016Y-83157763D01*
X172053734Y-83060676D01*
X172189825Y-82845845D01*
X172214934Y-82708967D01*
X172214934Y-80096789D01*
X173138172Y-80096789D01*
X173138172Y-82633251D01*
X173138172Y-82920237D01*
X173097636Y-83161670D01*
X172993508Y-83397402D01*
X172874390Y-83555268D01*
X172699494Y-83725888D01*
X172488949Y-83883710D01*
X172317516Y-83982693D01*
X172077662Y-84091687D01*
X171828877Y-84178698D01*
X171658060Y-84224494D01*
X171397484Y-84274353D01*
X171134159Y-84301201D01*
X170957083Y-84306315D01*
G37*
G36*
X173914864Y-80102896D02*
G01*
X178659281Y-80102896D01*
X178659281Y-81018806D01*
X176751745Y-81018806D01*
X176751745Y-84142672D01*
X175828507Y-84142672D01*
X175828507Y-81018806D01*
X173914864Y-81018806D01*
X173914864Y-80102896D01*
G37*
G36*
X82362700Y-83220655D02*
G01*
X84057745Y-83220655D01*
X84057745Y-81018806D01*
X82362700Y-81018806D01*
X82362700Y-80102896D01*
X86668702Y-80102896D01*
X86668702Y-81018806D01*
X84980983Y-81018806D01*
X84980983Y-83220655D01*
X86668702Y-83220655D01*
X86668702Y-84136566D01*
X82362700Y-84136566D01*
X82362700Y-83220655D01*
G37*
G36*
X89608164Y-79929483D02*
G01*
X89873320Y-79940989D01*
X90135729Y-79975508D01*
X90309141Y-80011304D01*
X90563879Y-80083833D01*
X90809686Y-80178687D01*
X90968597Y-80254326D01*
X91194598Y-80389251D01*
X91399991Y-80554058D01*
X91525471Y-80680530D01*
X91676481Y-80894624D01*
X91764981Y-81137569D01*
X91789253Y-81315561D01*
X91789253Y-81602547D01*
X91789253Y-84167096D01*
X90866015Y-84167096D01*
X90866015Y-81528053D01*
X90796749Y-81291061D01*
X90704815Y-81176343D01*
X90508275Y-81023691D01*
X90377529Y-80954082D01*
X90145880Y-80867547D01*
X90001395Y-80830739D01*
X89756771Y-80795057D01*
X89608164Y-80789218D01*
X89361822Y-80805437D01*
X89214933Y-80830739D01*
X88976987Y-80898383D01*
X88838799Y-80954082D01*
X88626232Y-81079256D01*
X88511514Y-81176343D01*
X88375973Y-81390623D01*
X88350314Y-81528053D01*
X88350314Y-84167096D01*
X87434403Y-84167096D01*
X87434403Y-81602547D01*
X87434403Y-81315561D01*
X87474506Y-81074128D01*
X87577174Y-80838396D01*
X87694521Y-80680530D01*
X87884516Y-80495802D01*
X88095461Y-80340956D01*
X88247732Y-80254326D01*
X88488158Y-80144589D01*
X88736828Y-80057176D01*
X88907187Y-80011304D01*
X89167764Y-79961445D01*
X89431088Y-79934597D01*
X89608164Y-79929483D01*
G37*
D11*
G36*
X98949616Y-179283413D02*
G01*
X98756715Y-178974971D01*
X98563978Y-178627095D01*
X98398905Y-178297530D01*
X98233953Y-177938994D01*
X98096584Y-177618083D01*
X98069120Y-177551487D01*
X96747522Y-174144055D01*
X98164864Y-174144055D01*
X99170167Y-176900091D01*
X99302655Y-177235660D01*
X99433835Y-177554212D01*
X99471074Y-177642101D01*
X99617659Y-177955557D01*
X99789751Y-178260097D01*
X99801046Y-178278109D01*
X100046949Y-178532294D01*
X100213084Y-178584146D01*
X100515380Y-178404948D01*
X100604605Y-178278109D01*
X100785406Y-177975492D01*
X100935497Y-177663840D01*
X100944836Y-177642101D01*
X101085034Y-177305354D01*
X101217242Y-176973431D01*
X101245743Y-176900091D01*
X102221981Y-174144055D01*
X103639323Y-174144055D01*
X102346790Y-177551487D01*
X102209070Y-177881506D01*
X102044138Y-178248878D01*
X101879566Y-178584994D01*
X101715354Y-178889855D01*
X101524230Y-179206022D01*
X101469713Y-179288542D01*
X101228325Y-179571818D01*
X100938424Y-179775379D01*
X100600011Y-179899225D01*
X100213084Y-179943357D01*
X99868037Y-179908856D01*
X99520781Y-179794092D01*
X99223747Y-179598973D01*
X98976936Y-179323497D01*
X98949616Y-179283413D01*
G37*
G36*
X105723447Y-175436588D02*
G01*
X105723447Y-179820259D01*
X104432623Y-179820259D01*
X104432623Y-175436588D01*
X105723447Y-175436588D01*
G37*
G36*
X104289009Y-174106442D02*
G01*
X104397294Y-173773725D01*
X104518108Y-173646532D01*
X104824520Y-173486649D01*
X105073761Y-173455046D01*
X105425759Y-173522552D01*
X105627704Y-173646532D01*
X105831240Y-173930992D01*
X105858513Y-174106442D01*
X105749420Y-174446872D01*
X105627704Y-174574899D01*
X105321895Y-174734783D01*
X105073761Y-174766386D01*
X104737224Y-174705798D01*
X104518108Y-174574899D01*
X104316080Y-174286758D01*
X104289009Y-174106442D01*
G37*
G36*
X108205931Y-174114990D02*
G01*
X108205931Y-178259303D01*
X108455547Y-178508919D01*
X111804850Y-178508919D01*
X112119434Y-178351626D01*
X112299514Y-178054673D01*
X112316050Y-178006267D01*
X112378320Y-177659572D01*
X112379309Y-177609617D01*
X112330876Y-177270589D01*
X112316050Y-177221515D01*
X112152052Y-176915398D01*
X112119434Y-176877865D01*
X111804850Y-176729121D01*
X108819713Y-176729121D01*
X108819713Y-175445137D01*
X111767236Y-175445137D01*
X112125562Y-175479307D01*
X112479924Y-175583893D01*
X112788204Y-175758603D01*
X112871702Y-175824690D01*
X113119809Y-176063948D01*
X113336417Y-176349115D01*
X113494033Y-176657314D01*
X113607595Y-177009619D01*
X113668743Y-177371541D01*
X113680390Y-177618165D01*
X113653463Y-177975279D01*
X113572679Y-178328546D01*
X113488904Y-178561920D01*
X113328974Y-178869347D01*
X113112476Y-179154551D01*
X112866573Y-179394543D01*
X112557959Y-179591226D01*
X112211114Y-179711709D01*
X111847856Y-179773846D01*
X111594556Y-179791194D01*
X107575052Y-179791194D01*
X107242335Y-179707959D01*
X107115143Y-179615095D01*
X106934387Y-179312683D01*
X106915108Y-179168863D01*
X106915108Y-174114990D01*
X108205931Y-174114990D01*
G37*
G36*
X116720237Y-179810001D02*
G01*
X116371859Y-179780922D01*
X116021798Y-179707619D01*
X115689288Y-179574062D01*
X115448220Y-179409931D01*
X115202317Y-179168703D01*
X114985820Y-178881754D01*
X114825889Y-178572178D01*
X114709202Y-178218911D01*
X114646371Y-177861797D01*
X114634403Y-177621585D01*
X114660609Y-177250687D01*
X114739229Y-176889406D01*
X114820760Y-176653894D01*
X114978377Y-176343345D01*
X115194984Y-176055827D01*
X115443091Y-175814432D01*
X115738281Y-175617783D01*
X116078886Y-175491592D01*
X116424258Y-175438263D01*
X116547557Y-175433169D01*
X120683321Y-175433169D01*
X120683321Y-176636797D01*
X116605687Y-176636797D01*
X116276944Y-176748061D01*
X116236392Y-176782122D01*
X116037225Y-177074187D01*
X116007292Y-177158256D01*
X115939973Y-177499662D01*
X115935485Y-177611326D01*
X115972580Y-177955019D01*
X116007292Y-178086623D01*
X116171667Y-178391956D01*
X116236392Y-178457628D01*
X116553915Y-178601804D01*
X116605687Y-178606372D01*
X120683321Y-178606372D01*
X120683321Y-179810001D01*
X116720237Y-179810001D01*
G37*
G36*
X120683321Y-178059268D02*
G01*
X116595429Y-178059268D01*
X116595429Y-177183901D01*
X120683321Y-177183901D01*
X120683321Y-178059268D01*
G37*
G36*
X127007501Y-181560733D02*
G01*
X127007501Y-180575946D01*
X133027355Y-180575946D01*
X133027355Y-181560733D01*
X127007501Y-181560733D01*
G37*
G36*
X141663049Y-175426330D02*
G01*
X141328803Y-175505404D01*
X141054396Y-175705011D01*
X140845813Y-175981128D01*
X140705617Y-176293148D01*
X140627398Y-176626539D01*
X140601326Y-176966770D01*
X140626116Y-177309564D01*
X140700488Y-177647230D01*
X140838119Y-177962242D01*
X141049267Y-178237077D01*
X141346813Y-178439821D01*
X141663049Y-178508919D01*
X145318388Y-178508919D01*
X145318388Y-179791194D01*
X141767341Y-179791194D01*
X141327948Y-179791194D01*
X140969893Y-179734724D01*
X140649705Y-179609552D01*
X140367384Y-179415678D01*
X140226901Y-179278284D01*
X140003891Y-179001748D01*
X139819559Y-178704927D01*
X139673905Y-178387819D01*
X139609700Y-178202883D01*
X139519615Y-177861101D01*
X139459012Y-177514722D01*
X139427892Y-177163744D01*
X139423342Y-176966770D01*
X139438008Y-176616869D01*
X139482006Y-176269853D01*
X139527634Y-176040112D01*
X139623965Y-175701431D01*
X139753955Y-175375253D01*
X139859316Y-175164746D01*
X140049974Y-174868941D01*
X140283428Y-174607277D01*
X140462840Y-174451801D01*
X140761610Y-174269077D01*
X141091155Y-174167136D01*
X141327948Y-174144055D01*
X141509176Y-174144055D01*
X145318388Y-174144055D01*
X145318388Y-175426330D01*
X141663049Y-175426330D01*
G37*
G36*
X151635018Y-175479307D02*
G01*
X151989380Y-175583893D01*
X152297660Y-175758603D01*
X152381158Y-175824690D01*
X152629265Y-176063948D01*
X152845872Y-176349115D01*
X153003489Y-176657314D01*
X153118092Y-177009619D01*
X153179802Y-177371541D01*
X153191556Y-177618165D01*
X153164628Y-177975279D01*
X153083845Y-178328546D01*
X153000069Y-178561920D01*
X152840139Y-178869347D01*
X152623642Y-179154551D01*
X152377739Y-179394543D01*
X152068223Y-179591226D01*
X151720852Y-179711709D01*
X151357353Y-179773846D01*
X151104012Y-179791194D01*
X148347976Y-179791194D01*
X147999598Y-179762279D01*
X147649537Y-179689563D01*
X147317027Y-179557179D01*
X147075959Y-179394543D01*
X146830056Y-179154551D01*
X146613559Y-178869347D01*
X146453628Y-178561920D01*
X146336941Y-178211217D01*
X146274110Y-177856668D01*
X146262142Y-177618165D01*
X146262750Y-177609617D01*
X147563224Y-177609617D01*
X147610347Y-177957060D01*
X147624773Y-178006267D01*
X147789144Y-178313692D01*
X147821388Y-178351626D01*
X148126401Y-178508144D01*
X148137683Y-178508919D01*
X151316015Y-178508919D01*
X151630600Y-178351626D01*
X151810679Y-178054673D01*
X151827215Y-178006267D01*
X151889486Y-177659572D01*
X151890474Y-177609617D01*
X151842042Y-177270589D01*
X151827215Y-177221515D01*
X151663218Y-176915398D01*
X151630600Y-176877865D01*
X151316015Y-176729121D01*
X148137683Y-176729121D01*
X147821388Y-176877865D01*
X147641683Y-177173136D01*
X147624773Y-177221515D01*
X147564185Y-177561665D01*
X147563224Y-177609617D01*
X146262750Y-177609617D01*
X146288348Y-177249832D01*
X146366968Y-176891115D01*
X146448499Y-176657314D01*
X146606116Y-176349115D01*
X146822723Y-176063948D01*
X147070830Y-175824690D01*
X147366187Y-175628943D01*
X147707293Y-175503320D01*
X148053402Y-175450216D01*
X148177006Y-175445137D01*
X151276692Y-175445137D01*
X151635018Y-175479307D01*
G37*
G36*
X156280984Y-175323748D02*
G01*
X156632686Y-175356077D01*
X156935799Y-175438298D01*
X157251238Y-175579348D01*
X157554710Y-175773399D01*
X157659002Y-175869142D01*
X157765003Y-175773399D01*
X158068047Y-175579348D01*
X158382205Y-175438298D01*
X158724682Y-175348918D01*
X159028471Y-175323748D01*
X159380174Y-175356077D01*
X159683286Y-175438298D01*
X159997016Y-175580630D01*
X160295359Y-175778528D01*
X160554419Y-176021184D01*
X160769093Y-176306637D01*
X160811688Y-176375213D01*
X160957808Y-176701746D01*
X161026570Y-177045235D01*
X161037369Y-177264257D01*
X161037369Y-179839065D01*
X159746545Y-179839065D01*
X159746545Y-177341194D01*
X159684470Y-177004041D01*
X159659351Y-176953092D01*
X159467864Y-176705185D01*
X159247313Y-176570119D01*
X159018213Y-176527377D01*
X158792533Y-176570119D01*
X158577111Y-176705185D01*
X158385624Y-176953092D01*
X158294930Y-177284640D01*
X158291591Y-177341194D01*
X158291591Y-179839065D01*
X156999058Y-179839065D01*
X156999058Y-177341194D01*
X156936982Y-177004041D01*
X156911863Y-176953092D01*
X156720376Y-176705185D01*
X156501535Y-176570119D01*
X156272435Y-176527377D01*
X156046755Y-176570119D01*
X155831332Y-176705185D01*
X155639846Y-176953092D01*
X155547843Y-177284640D01*
X155544103Y-177341194D01*
X155544103Y-179839065D01*
X154261828Y-179839065D01*
X154261828Y-177264257D01*
X154304303Y-176897206D01*
X154414349Y-176545148D01*
X154501186Y-176375213D01*
X154708567Y-176077559D01*
X154962718Y-175821830D01*
X155017515Y-175778528D01*
X155320560Y-175580630D01*
X155634717Y-175438298D01*
X155977195Y-175348918D01*
X156280984Y-175323748D01*
G37*
G36*
X163531821Y-181198277D02*
G01*
X162240998Y-181198277D01*
X162240998Y-176067467D01*
X162347792Y-175729995D01*
X162441032Y-175622945D01*
X162756040Y-175459202D01*
X162900942Y-175445137D01*
X166920446Y-175445137D01*
X167269409Y-175474133D01*
X167619737Y-175547143D01*
X167952036Y-175680113D01*
X168192463Y-175843497D01*
X168438366Y-176082754D01*
X168654863Y-176367922D01*
X168814794Y-176676121D01*
X168931481Y-177025781D01*
X168994312Y-177379769D01*
X169006280Y-177618165D01*
X168980074Y-177986739D01*
X168901454Y-178346177D01*
X168819923Y-178580726D01*
X168662307Y-178888153D01*
X168445699Y-179173358D01*
X168197592Y-179413350D01*
X167903136Y-179608196D01*
X167562599Y-179733251D01*
X167216715Y-179786130D01*
X167093126Y-179791194D01*
X164183217Y-179791194D01*
X164183217Y-178508919D01*
X167130739Y-178508919D01*
X167445324Y-178360175D01*
X167625404Y-178064530D01*
X167641940Y-178016525D01*
X167704210Y-177676375D01*
X167705198Y-177628423D01*
X167656766Y-177280606D01*
X167641940Y-177231773D01*
X167477942Y-176924348D01*
X167445324Y-176886414D01*
X167130739Y-176729121D01*
X163781437Y-176729121D01*
X163531821Y-176977028D01*
X163531821Y-181198277D01*
G37*
D10*
X113833333Y-152359580D02*
X113785714Y-152407200D01*
X113785714Y-152407200D02*
X113642857Y-152454819D01*
X113642857Y-152454819D02*
X113547619Y-152454819D01*
X113547619Y-152454819D02*
X113404762Y-152407200D01*
X113404762Y-152407200D02*
X113309524Y-152311961D01*
X113309524Y-152311961D02*
X113261905Y-152216723D01*
X113261905Y-152216723D02*
X113214286Y-152026247D01*
X113214286Y-152026247D02*
X113214286Y-151883390D01*
X113214286Y-151883390D02*
X113261905Y-151692914D01*
X113261905Y-151692914D02*
X113309524Y-151597676D01*
X113309524Y-151597676D02*
X113404762Y-151502438D01*
X113404762Y-151502438D02*
X113547619Y-151454819D01*
X113547619Y-151454819D02*
X113642857Y-151454819D01*
X113642857Y-151454819D02*
X113785714Y-151502438D01*
X113785714Y-151502438D02*
X113833333Y-151550057D01*
X114166667Y-151454819D02*
X114833333Y-151454819D01*
X114833333Y-151454819D02*
X114404762Y-152454819D01*
X100357142Y-138454819D02*
X100023809Y-137978628D01*
X99785714Y-138454819D02*
X99785714Y-137454819D01*
X99785714Y-137454819D02*
X100166666Y-137454819D01*
X100166666Y-137454819D02*
X100261904Y-137502438D01*
X100261904Y-137502438D02*
X100309523Y-137550057D01*
X100309523Y-137550057D02*
X100357142Y-137645295D01*
X100357142Y-137645295D02*
X100357142Y-137788152D01*
X100357142Y-137788152D02*
X100309523Y-137883390D01*
X100309523Y-137883390D02*
X100261904Y-137931009D01*
X100261904Y-137931009D02*
X100166666Y-137978628D01*
X100166666Y-137978628D02*
X99785714Y-137978628D01*
X101309523Y-138454819D02*
X100738095Y-138454819D01*
X101023809Y-138454819D02*
X101023809Y-137454819D01*
X101023809Y-137454819D02*
X100928571Y-137597676D01*
X100928571Y-137597676D02*
X100833333Y-137692914D01*
X100833333Y-137692914D02*
X100738095Y-137740533D01*
X101642857Y-137454819D02*
X102309523Y-137454819D01*
X102309523Y-137454819D02*
X101880952Y-138454819D01*
X139357142Y-131454819D02*
X139023809Y-130978628D01*
X138785714Y-131454819D02*
X138785714Y-130454819D01*
X138785714Y-130454819D02*
X139166666Y-130454819D01*
X139166666Y-130454819D02*
X139261904Y-130502438D01*
X139261904Y-130502438D02*
X139309523Y-130550057D01*
X139309523Y-130550057D02*
X139357142Y-130645295D01*
X139357142Y-130645295D02*
X139357142Y-130788152D01*
X139357142Y-130788152D02*
X139309523Y-130883390D01*
X139309523Y-130883390D02*
X139261904Y-130931009D01*
X139261904Y-130931009D02*
X139166666Y-130978628D01*
X139166666Y-130978628D02*
X138785714Y-130978628D01*
X140309523Y-131454819D02*
X139738095Y-131454819D01*
X140023809Y-131454819D02*
X140023809Y-130454819D01*
X140023809Y-130454819D02*
X139928571Y-130597676D01*
X139928571Y-130597676D02*
X139833333Y-130692914D01*
X139833333Y-130692914D02*
X139738095Y-130740533D01*
X140690476Y-130550057D02*
X140738095Y-130502438D01*
X140738095Y-130502438D02*
X140833333Y-130454819D01*
X140833333Y-130454819D02*
X141071428Y-130454819D01*
X141071428Y-130454819D02*
X141166666Y-130502438D01*
X141166666Y-130502438D02*
X141214285Y-130550057D01*
X141214285Y-130550057D02*
X141261904Y-130645295D01*
X141261904Y-130645295D02*
X141261904Y-130740533D01*
X141261904Y-130740533D02*
X141214285Y-130883390D01*
X141214285Y-130883390D02*
X140642857Y-131454819D01*
X140642857Y-131454819D02*
X141261904Y-131454819D01*
X152357142Y-152359580D02*
X152309523Y-152407200D01*
X152309523Y-152407200D02*
X152166666Y-152454819D01*
X152166666Y-152454819D02*
X152071428Y-152454819D01*
X152071428Y-152454819D02*
X151928571Y-152407200D01*
X151928571Y-152407200D02*
X151833333Y-152311961D01*
X151833333Y-152311961D02*
X151785714Y-152216723D01*
X151785714Y-152216723D02*
X151738095Y-152026247D01*
X151738095Y-152026247D02*
X151738095Y-151883390D01*
X151738095Y-151883390D02*
X151785714Y-151692914D01*
X151785714Y-151692914D02*
X151833333Y-151597676D01*
X151833333Y-151597676D02*
X151928571Y-151502438D01*
X151928571Y-151502438D02*
X152071428Y-151454819D01*
X152071428Y-151454819D02*
X152166666Y-151454819D01*
X152166666Y-151454819D02*
X152309523Y-151502438D01*
X152309523Y-151502438D02*
X152357142Y-151550057D01*
X153309523Y-152454819D02*
X152738095Y-152454819D01*
X153023809Y-152454819D02*
X153023809Y-151454819D01*
X153023809Y-151454819D02*
X152928571Y-151597676D01*
X152928571Y-151597676D02*
X152833333Y-151692914D01*
X152833333Y-151692914D02*
X152738095Y-151740533D01*
X153928571Y-151454819D02*
X154023809Y-151454819D01*
X154023809Y-151454819D02*
X154119047Y-151502438D01*
X154119047Y-151502438D02*
X154166666Y-151550057D01*
X154166666Y-151550057D02*
X154214285Y-151645295D01*
X154214285Y-151645295D02*
X154261904Y-151835771D01*
X154261904Y-151835771D02*
X154261904Y-152073866D01*
X154261904Y-152073866D02*
X154214285Y-152264342D01*
X154214285Y-152264342D02*
X154166666Y-152359580D01*
X154166666Y-152359580D02*
X154119047Y-152407200D01*
X154119047Y-152407200D02*
X154023809Y-152454819D01*
X154023809Y-152454819D02*
X153928571Y-152454819D01*
X153928571Y-152454819D02*
X153833333Y-152407200D01*
X153833333Y-152407200D02*
X153785714Y-152359580D01*
X153785714Y-152359580D02*
X153738095Y-152264342D01*
X153738095Y-152264342D02*
X153690476Y-152073866D01*
X153690476Y-152073866D02*
X153690476Y-151835771D01*
X153690476Y-151835771D02*
X153738095Y-151645295D01*
X153738095Y-151645295D02*
X153785714Y-151550057D01*
X153785714Y-151550057D02*
X153833333Y-151502438D01*
X153833333Y-151502438D02*
X153928571Y-151454819D01*
X99238095Y-87454819D02*
X99238095Y-88264342D01*
X99238095Y-88264342D02*
X99285714Y-88359580D01*
X99285714Y-88359580D02*
X99333333Y-88407200D01*
X99333333Y-88407200D02*
X99428571Y-88454819D01*
X99428571Y-88454819D02*
X99619047Y-88454819D01*
X99619047Y-88454819D02*
X99714285Y-88407200D01*
X99714285Y-88407200D02*
X99761904Y-88359580D01*
X99761904Y-88359580D02*
X99809523Y-88264342D01*
X99809523Y-88264342D02*
X99809523Y-87454819D01*
X100809523Y-88454819D02*
X100238095Y-88454819D01*
X100523809Y-88454819D02*
X100523809Y-87454819D01*
X100523809Y-87454819D02*
X100428571Y-87597676D01*
X100428571Y-87597676D02*
X100333333Y-87692914D01*
X100333333Y-87692914D02*
X100238095Y-87740533D01*
X165261905Y-138454819D02*
X165261905Y-137454819D01*
X165261905Y-137454819D02*
X165500000Y-137454819D01*
X165500000Y-137454819D02*
X165642857Y-137502438D01*
X165642857Y-137502438D02*
X165738095Y-137597676D01*
X165738095Y-137597676D02*
X165785714Y-137692914D01*
X165785714Y-137692914D02*
X165833333Y-137883390D01*
X165833333Y-137883390D02*
X165833333Y-138026247D01*
X165833333Y-138026247D02*
X165785714Y-138216723D01*
X165785714Y-138216723D02*
X165738095Y-138311961D01*
X165738095Y-138311961D02*
X165642857Y-138407200D01*
X165642857Y-138407200D02*
X165500000Y-138454819D01*
X165500000Y-138454819D02*
X165261905Y-138454819D01*
X166785714Y-138454819D02*
X166214286Y-138454819D01*
X166500000Y-138454819D02*
X166500000Y-137454819D01*
X166500000Y-137454819D02*
X166404762Y-137597676D01*
X166404762Y-137597676D02*
X166309524Y-137692914D01*
X166309524Y-137692914D02*
X166214286Y-137740533D01*
X165357142Y-131454819D02*
X165023809Y-130978628D01*
X164785714Y-131454819D02*
X164785714Y-130454819D01*
X164785714Y-130454819D02*
X165166666Y-130454819D01*
X165166666Y-130454819D02*
X165261904Y-130502438D01*
X165261904Y-130502438D02*
X165309523Y-130550057D01*
X165309523Y-130550057D02*
X165357142Y-130645295D01*
X165357142Y-130645295D02*
X165357142Y-130788152D01*
X165357142Y-130788152D02*
X165309523Y-130883390D01*
X165309523Y-130883390D02*
X165261904Y-130931009D01*
X165261904Y-130931009D02*
X165166666Y-130978628D01*
X165166666Y-130978628D02*
X164785714Y-130978628D01*
X166309523Y-131454819D02*
X165738095Y-131454819D01*
X166023809Y-131454819D02*
X166023809Y-130454819D01*
X166023809Y-130454819D02*
X165928571Y-130597676D01*
X165928571Y-130597676D02*
X165833333Y-130692914D01*
X165833333Y-130692914D02*
X165738095Y-130740533D01*
X167166666Y-130788152D02*
X167166666Y-131454819D01*
X166928571Y-130407200D02*
X166690476Y-131121485D01*
X166690476Y-131121485D02*
X167309523Y-131121485D01*
X113357142Y-131454819D02*
X113023809Y-130978628D01*
X112785714Y-131454819D02*
X112785714Y-130454819D01*
X112785714Y-130454819D02*
X113166666Y-130454819D01*
X113166666Y-130454819D02*
X113261904Y-130502438D01*
X113261904Y-130502438D02*
X113309523Y-130550057D01*
X113309523Y-130550057D02*
X113357142Y-130645295D01*
X113357142Y-130645295D02*
X113357142Y-130788152D01*
X113357142Y-130788152D02*
X113309523Y-130883390D01*
X113309523Y-130883390D02*
X113261904Y-130931009D01*
X113261904Y-130931009D02*
X113166666Y-130978628D01*
X113166666Y-130978628D02*
X112785714Y-130978628D01*
X114309523Y-131454819D02*
X113738095Y-131454819D01*
X114023809Y-131454819D02*
X114023809Y-130454819D01*
X114023809Y-130454819D02*
X113928571Y-130597676D01*
X113928571Y-130597676D02*
X113833333Y-130692914D01*
X113833333Y-130692914D02*
X113738095Y-130740533D01*
X114928571Y-130454819D02*
X115023809Y-130454819D01*
X115023809Y-130454819D02*
X115119047Y-130502438D01*
X115119047Y-130502438D02*
X115166666Y-130550057D01*
X115166666Y-130550057D02*
X115214285Y-130645295D01*
X115214285Y-130645295D02*
X115261904Y-130835771D01*
X115261904Y-130835771D02*
X115261904Y-131073866D01*
X115261904Y-131073866D02*
X115214285Y-131264342D01*
X115214285Y-131264342D02*
X115166666Y-131359580D01*
X115166666Y-131359580D02*
X115119047Y-131407200D01*
X115119047Y-131407200D02*
X115023809Y-131454819D01*
X115023809Y-131454819D02*
X114928571Y-131454819D01*
X114928571Y-131454819D02*
X114833333Y-131407200D01*
X114833333Y-131407200D02*
X114785714Y-131359580D01*
X114785714Y-131359580D02*
X114738095Y-131264342D01*
X114738095Y-131264342D02*
X114690476Y-131073866D01*
X114690476Y-131073866D02*
X114690476Y-130835771D01*
X114690476Y-130835771D02*
X114738095Y-130645295D01*
X114738095Y-130645295D02*
X114785714Y-130550057D01*
X114785714Y-130550057D02*
X114833333Y-130502438D01*
X114833333Y-130502438D02*
X114928571Y-130454819D01*
X87261905Y-145454819D02*
X87261905Y-144454819D01*
X87261905Y-144454819D02*
X87500000Y-144454819D01*
X87500000Y-144454819D02*
X87642857Y-144502438D01*
X87642857Y-144502438D02*
X87738095Y-144597676D01*
X87738095Y-144597676D02*
X87785714Y-144692914D01*
X87785714Y-144692914D02*
X87833333Y-144883390D01*
X87833333Y-144883390D02*
X87833333Y-145026247D01*
X87833333Y-145026247D02*
X87785714Y-145216723D01*
X87785714Y-145216723D02*
X87738095Y-145311961D01*
X87738095Y-145311961D02*
X87642857Y-145407200D01*
X87642857Y-145407200D02*
X87500000Y-145454819D01*
X87500000Y-145454819D02*
X87261905Y-145454819D01*
X88214286Y-144550057D02*
X88261905Y-144502438D01*
X88261905Y-144502438D02*
X88357143Y-144454819D01*
X88357143Y-144454819D02*
X88595238Y-144454819D01*
X88595238Y-144454819D02*
X88690476Y-144502438D01*
X88690476Y-144502438D02*
X88738095Y-144550057D01*
X88738095Y-144550057D02*
X88785714Y-144645295D01*
X88785714Y-144645295D02*
X88785714Y-144740533D01*
X88785714Y-144740533D02*
X88738095Y-144883390D01*
X88738095Y-144883390D02*
X88166667Y-145454819D01*
X88166667Y-145454819D02*
X88785714Y-145454819D01*
X152833333Y-145359580D02*
X152785714Y-145407200D01*
X152785714Y-145407200D02*
X152642857Y-145454819D01*
X152642857Y-145454819D02*
X152547619Y-145454819D01*
X152547619Y-145454819D02*
X152404762Y-145407200D01*
X152404762Y-145407200D02*
X152309524Y-145311961D01*
X152309524Y-145311961D02*
X152261905Y-145216723D01*
X152261905Y-145216723D02*
X152214286Y-145026247D01*
X152214286Y-145026247D02*
X152214286Y-144883390D01*
X152214286Y-144883390D02*
X152261905Y-144692914D01*
X152261905Y-144692914D02*
X152309524Y-144597676D01*
X152309524Y-144597676D02*
X152404762Y-144502438D01*
X152404762Y-144502438D02*
X152547619Y-144454819D01*
X152547619Y-144454819D02*
X152642857Y-144454819D01*
X152642857Y-144454819D02*
X152785714Y-144502438D01*
X152785714Y-144502438D02*
X152833333Y-144550057D01*
X153166667Y-144454819D02*
X153785714Y-144454819D01*
X153785714Y-144454819D02*
X153452381Y-144835771D01*
X153452381Y-144835771D02*
X153595238Y-144835771D01*
X153595238Y-144835771D02*
X153690476Y-144883390D01*
X153690476Y-144883390D02*
X153738095Y-144931009D01*
X153738095Y-144931009D02*
X153785714Y-145026247D01*
X153785714Y-145026247D02*
X153785714Y-145264342D01*
X153785714Y-145264342D02*
X153738095Y-145359580D01*
X153738095Y-145359580D02*
X153690476Y-145407200D01*
X153690476Y-145407200D02*
X153595238Y-145454819D01*
X153595238Y-145454819D02*
X153309524Y-145454819D01*
X153309524Y-145454819D02*
X153214286Y-145407200D01*
X153214286Y-145407200D02*
X153166667Y-145359580D01*
X113904761Y-144350057D02*
X113809523Y-144302438D01*
X113809523Y-144302438D02*
X113714285Y-144207200D01*
X113714285Y-144207200D02*
X113571428Y-144064342D01*
X113571428Y-144064342D02*
X113476190Y-144016723D01*
X113476190Y-144016723D02*
X113380952Y-144016723D01*
X113428571Y-144254819D02*
X113333333Y-144207200D01*
X113333333Y-144207200D02*
X113238095Y-144111961D01*
X113238095Y-144111961D02*
X113190476Y-143921485D01*
X113190476Y-143921485D02*
X113190476Y-143588152D01*
X113190476Y-143588152D02*
X113238095Y-143397676D01*
X113238095Y-143397676D02*
X113333333Y-143302438D01*
X113333333Y-143302438D02*
X113428571Y-143254819D01*
X113428571Y-143254819D02*
X113619047Y-143254819D01*
X113619047Y-143254819D02*
X113714285Y-143302438D01*
X113714285Y-143302438D02*
X113809523Y-143397676D01*
X113809523Y-143397676D02*
X113857142Y-143588152D01*
X113857142Y-143588152D02*
X113857142Y-143921485D01*
X113857142Y-143921485D02*
X113809523Y-144111961D01*
X113809523Y-144111961D02*
X113714285Y-144207200D01*
X113714285Y-144207200D02*
X113619047Y-144254819D01*
X113619047Y-144254819D02*
X113428571Y-144254819D01*
X114238095Y-143350057D02*
X114285714Y-143302438D01*
X114285714Y-143302438D02*
X114380952Y-143254819D01*
X114380952Y-143254819D02*
X114619047Y-143254819D01*
X114619047Y-143254819D02*
X114714285Y-143302438D01*
X114714285Y-143302438D02*
X114761904Y-143350057D01*
X114761904Y-143350057D02*
X114809523Y-143445295D01*
X114809523Y-143445295D02*
X114809523Y-143540533D01*
X114809523Y-143540533D02*
X114761904Y-143683390D01*
X114761904Y-143683390D02*
X114190476Y-144254819D01*
X114190476Y-144254819D02*
X114809523Y-144254819D01*
X121023810Y-88454819D02*
X121023810Y-87454819D01*
X122071428Y-88359580D02*
X122023809Y-88407200D01*
X122023809Y-88407200D02*
X121880952Y-88454819D01*
X121880952Y-88454819D02*
X121785714Y-88454819D01*
X121785714Y-88454819D02*
X121642857Y-88407200D01*
X121642857Y-88407200D02*
X121547619Y-88311961D01*
X121547619Y-88311961D02*
X121500000Y-88216723D01*
X121500000Y-88216723D02*
X121452381Y-88026247D01*
X121452381Y-88026247D02*
X121452381Y-87883390D01*
X121452381Y-87883390D02*
X121500000Y-87692914D01*
X121500000Y-87692914D02*
X121547619Y-87597676D01*
X121547619Y-87597676D02*
X121642857Y-87502438D01*
X121642857Y-87502438D02*
X121785714Y-87454819D01*
X121785714Y-87454819D02*
X121880952Y-87454819D01*
X121880952Y-87454819D02*
X122023809Y-87502438D01*
X122023809Y-87502438D02*
X122071428Y-87550057D01*
X123023809Y-88454819D02*
X122452381Y-88454819D01*
X122738095Y-88454819D02*
X122738095Y-87454819D01*
X122738095Y-87454819D02*
X122642857Y-87597676D01*
X122642857Y-87597676D02*
X122547619Y-87692914D01*
X122547619Y-87692914D02*
X122452381Y-87740533D01*
X100833333Y-124454819D02*
X100500000Y-123978628D01*
X100261905Y-124454819D02*
X100261905Y-123454819D01*
X100261905Y-123454819D02*
X100642857Y-123454819D01*
X100642857Y-123454819D02*
X100738095Y-123502438D01*
X100738095Y-123502438D02*
X100785714Y-123550057D01*
X100785714Y-123550057D02*
X100833333Y-123645295D01*
X100833333Y-123645295D02*
X100833333Y-123788152D01*
X100833333Y-123788152D02*
X100785714Y-123883390D01*
X100785714Y-123883390D02*
X100738095Y-123931009D01*
X100738095Y-123931009D02*
X100642857Y-123978628D01*
X100642857Y-123978628D02*
X100261905Y-123978628D01*
X101214286Y-123550057D02*
X101261905Y-123502438D01*
X101261905Y-123502438D02*
X101357143Y-123454819D01*
X101357143Y-123454819D02*
X101595238Y-123454819D01*
X101595238Y-123454819D02*
X101690476Y-123502438D01*
X101690476Y-123502438D02*
X101738095Y-123550057D01*
X101738095Y-123550057D02*
X101785714Y-123645295D01*
X101785714Y-123645295D02*
X101785714Y-123740533D01*
X101785714Y-123740533D02*
X101738095Y-123883390D01*
X101738095Y-123883390D02*
X101166667Y-124454819D01*
X101166667Y-124454819D02*
X101785714Y-124454819D01*
X139833333Y-124454819D02*
X139500000Y-123978628D01*
X139261905Y-124454819D02*
X139261905Y-123454819D01*
X139261905Y-123454819D02*
X139642857Y-123454819D01*
X139642857Y-123454819D02*
X139738095Y-123502438D01*
X139738095Y-123502438D02*
X139785714Y-123550057D01*
X139785714Y-123550057D02*
X139833333Y-123645295D01*
X139833333Y-123645295D02*
X139833333Y-123788152D01*
X139833333Y-123788152D02*
X139785714Y-123883390D01*
X139785714Y-123883390D02*
X139738095Y-123931009D01*
X139738095Y-123931009D02*
X139642857Y-123978628D01*
X139642857Y-123978628D02*
X139261905Y-123978628D01*
X140738095Y-123454819D02*
X140261905Y-123454819D01*
X140261905Y-123454819D02*
X140214286Y-123931009D01*
X140214286Y-123931009D02*
X140261905Y-123883390D01*
X140261905Y-123883390D02*
X140357143Y-123835771D01*
X140357143Y-123835771D02*
X140595238Y-123835771D01*
X140595238Y-123835771D02*
X140690476Y-123883390D01*
X140690476Y-123883390D02*
X140738095Y-123931009D01*
X140738095Y-123931009D02*
X140785714Y-124026247D01*
X140785714Y-124026247D02*
X140785714Y-124264342D01*
X140785714Y-124264342D02*
X140738095Y-124359580D01*
X140738095Y-124359580D02*
X140690476Y-124407200D01*
X140690476Y-124407200D02*
X140595238Y-124454819D01*
X140595238Y-124454819D02*
X140357143Y-124454819D01*
X140357143Y-124454819D02*
X140261905Y-124407200D01*
X140261905Y-124407200D02*
X140214286Y-124359580D01*
X126357142Y-131454819D02*
X126023809Y-130978628D01*
X125785714Y-131454819D02*
X125785714Y-130454819D01*
X125785714Y-130454819D02*
X126166666Y-130454819D01*
X126166666Y-130454819D02*
X126261904Y-130502438D01*
X126261904Y-130502438D02*
X126309523Y-130550057D01*
X126309523Y-130550057D02*
X126357142Y-130645295D01*
X126357142Y-130645295D02*
X126357142Y-130788152D01*
X126357142Y-130788152D02*
X126309523Y-130883390D01*
X126309523Y-130883390D02*
X126261904Y-130931009D01*
X126261904Y-130931009D02*
X126166666Y-130978628D01*
X126166666Y-130978628D02*
X125785714Y-130978628D01*
X127309523Y-131454819D02*
X126738095Y-131454819D01*
X127023809Y-131454819D02*
X127023809Y-130454819D01*
X127023809Y-130454819D02*
X126928571Y-130597676D01*
X126928571Y-130597676D02*
X126833333Y-130692914D01*
X126833333Y-130692914D02*
X126738095Y-130740533D01*
X128261904Y-131454819D02*
X127690476Y-131454819D01*
X127976190Y-131454819D02*
X127976190Y-130454819D01*
X127976190Y-130454819D02*
X127880952Y-130597676D01*
X127880952Y-130597676D02*
X127785714Y-130692914D01*
X127785714Y-130692914D02*
X127690476Y-130740533D01*
X87357142Y-138454819D02*
X87023809Y-137978628D01*
X86785714Y-138454819D02*
X86785714Y-137454819D01*
X86785714Y-137454819D02*
X87166666Y-137454819D01*
X87166666Y-137454819D02*
X87261904Y-137502438D01*
X87261904Y-137502438D02*
X87309523Y-137550057D01*
X87309523Y-137550057D02*
X87357142Y-137645295D01*
X87357142Y-137645295D02*
X87357142Y-137788152D01*
X87357142Y-137788152D02*
X87309523Y-137883390D01*
X87309523Y-137883390D02*
X87261904Y-137931009D01*
X87261904Y-137931009D02*
X87166666Y-137978628D01*
X87166666Y-137978628D02*
X86785714Y-137978628D01*
X88309523Y-138454819D02*
X87738095Y-138454819D01*
X88023809Y-138454819D02*
X88023809Y-137454819D01*
X88023809Y-137454819D02*
X87928571Y-137597676D01*
X87928571Y-137597676D02*
X87833333Y-137692914D01*
X87833333Y-137692914D02*
X87738095Y-137740533D01*
X89214285Y-137454819D02*
X88738095Y-137454819D01*
X88738095Y-137454819D02*
X88690476Y-137931009D01*
X88690476Y-137931009D02*
X88738095Y-137883390D01*
X88738095Y-137883390D02*
X88833333Y-137835771D01*
X88833333Y-137835771D02*
X89071428Y-137835771D01*
X89071428Y-137835771D02*
X89166666Y-137883390D01*
X89166666Y-137883390D02*
X89214285Y-137931009D01*
X89214285Y-137931009D02*
X89261904Y-138026247D01*
X89261904Y-138026247D02*
X89261904Y-138264342D01*
X89261904Y-138264342D02*
X89214285Y-138359580D01*
X89214285Y-138359580D02*
X89166666Y-138407200D01*
X89166666Y-138407200D02*
X89071428Y-138454819D01*
X89071428Y-138454819D02*
X88833333Y-138454819D01*
X88833333Y-138454819D02*
X88738095Y-138407200D01*
X88738095Y-138407200D02*
X88690476Y-138359580D01*
X119428571Y-119454819D02*
X119095238Y-118978628D01*
X118857143Y-119454819D02*
X118857143Y-118454819D01*
X118857143Y-118454819D02*
X119238095Y-118454819D01*
X119238095Y-118454819D02*
X119333333Y-118502438D01*
X119333333Y-118502438D02*
X119380952Y-118550057D01*
X119380952Y-118550057D02*
X119428571Y-118645295D01*
X119428571Y-118645295D02*
X119428571Y-118788152D01*
X119428571Y-118788152D02*
X119380952Y-118883390D01*
X119380952Y-118883390D02*
X119333333Y-118931009D01*
X119333333Y-118931009D02*
X119238095Y-118978628D01*
X119238095Y-118978628D02*
X118857143Y-118978628D01*
X120333333Y-119454819D02*
X119857143Y-119454819D01*
X119857143Y-119454819D02*
X119857143Y-118454819D01*
X121190476Y-119454819D02*
X120619048Y-119454819D01*
X120904762Y-119454819D02*
X120904762Y-118454819D01*
X120904762Y-118454819D02*
X120809524Y-118597676D01*
X120809524Y-118597676D02*
X120714286Y-118692914D01*
X120714286Y-118692914D02*
X120619048Y-118740533D01*
X148690476Y-69454819D02*
X149023809Y-70454819D01*
X149023809Y-70454819D02*
X149357142Y-69454819D01*
X150261904Y-70454819D02*
X149928571Y-69978628D01*
X149690476Y-70454819D02*
X149690476Y-69454819D01*
X149690476Y-69454819D02*
X150071428Y-69454819D01*
X150071428Y-69454819D02*
X150166666Y-69502438D01*
X150166666Y-69502438D02*
X150214285Y-69550057D01*
X150214285Y-69550057D02*
X150261904Y-69645295D01*
X150261904Y-69645295D02*
X150261904Y-69788152D01*
X150261904Y-69788152D02*
X150214285Y-69883390D01*
X150214285Y-69883390D02*
X150166666Y-69931009D01*
X150166666Y-69931009D02*
X150071428Y-69978628D01*
X150071428Y-69978628D02*
X149690476Y-69978628D01*
X150642857Y-69550057D02*
X150690476Y-69502438D01*
X150690476Y-69502438D02*
X150785714Y-69454819D01*
X150785714Y-69454819D02*
X151023809Y-69454819D01*
X151023809Y-69454819D02*
X151119047Y-69502438D01*
X151119047Y-69502438D02*
X151166666Y-69550057D01*
X151166666Y-69550057D02*
X151214285Y-69645295D01*
X151214285Y-69645295D02*
X151214285Y-69740533D01*
X151214285Y-69740533D02*
X151166666Y-69883390D01*
X151166666Y-69883390D02*
X150595238Y-70454819D01*
X150595238Y-70454819D02*
X151214285Y-70454819D01*
X87833333Y-152359580D02*
X87785714Y-152407200D01*
X87785714Y-152407200D02*
X87642857Y-152454819D01*
X87642857Y-152454819D02*
X87547619Y-152454819D01*
X87547619Y-152454819D02*
X87404762Y-152407200D01*
X87404762Y-152407200D02*
X87309524Y-152311961D01*
X87309524Y-152311961D02*
X87261905Y-152216723D01*
X87261905Y-152216723D02*
X87214286Y-152026247D01*
X87214286Y-152026247D02*
X87214286Y-151883390D01*
X87214286Y-151883390D02*
X87261905Y-151692914D01*
X87261905Y-151692914D02*
X87309524Y-151597676D01*
X87309524Y-151597676D02*
X87404762Y-151502438D01*
X87404762Y-151502438D02*
X87547619Y-151454819D01*
X87547619Y-151454819D02*
X87642857Y-151454819D01*
X87642857Y-151454819D02*
X87785714Y-151502438D01*
X87785714Y-151502438D02*
X87833333Y-151550057D01*
X88738095Y-151454819D02*
X88261905Y-151454819D01*
X88261905Y-151454819D02*
X88214286Y-151931009D01*
X88214286Y-151931009D02*
X88261905Y-151883390D01*
X88261905Y-151883390D02*
X88357143Y-151835771D01*
X88357143Y-151835771D02*
X88595238Y-151835771D01*
X88595238Y-151835771D02*
X88690476Y-151883390D01*
X88690476Y-151883390D02*
X88738095Y-151931009D01*
X88738095Y-151931009D02*
X88785714Y-152026247D01*
X88785714Y-152026247D02*
X88785714Y-152264342D01*
X88785714Y-152264342D02*
X88738095Y-152359580D01*
X88738095Y-152359580D02*
X88690476Y-152407200D01*
X88690476Y-152407200D02*
X88595238Y-152454819D01*
X88595238Y-152454819D02*
X88357143Y-152454819D01*
X88357143Y-152454819D02*
X88261905Y-152407200D01*
X88261905Y-152407200D02*
X88214286Y-152359580D01*
X100833333Y-152359580D02*
X100785714Y-152407200D01*
X100785714Y-152407200D02*
X100642857Y-152454819D01*
X100642857Y-152454819D02*
X100547619Y-152454819D01*
X100547619Y-152454819D02*
X100404762Y-152407200D01*
X100404762Y-152407200D02*
X100309524Y-152311961D01*
X100309524Y-152311961D02*
X100261905Y-152216723D01*
X100261905Y-152216723D02*
X100214286Y-152026247D01*
X100214286Y-152026247D02*
X100214286Y-151883390D01*
X100214286Y-151883390D02*
X100261905Y-151692914D01*
X100261905Y-151692914D02*
X100309524Y-151597676D01*
X100309524Y-151597676D02*
X100404762Y-151502438D01*
X100404762Y-151502438D02*
X100547619Y-151454819D01*
X100547619Y-151454819D02*
X100642857Y-151454819D01*
X100642857Y-151454819D02*
X100785714Y-151502438D01*
X100785714Y-151502438D02*
X100833333Y-151550057D01*
X101690476Y-151454819D02*
X101500000Y-151454819D01*
X101500000Y-151454819D02*
X101404762Y-151502438D01*
X101404762Y-151502438D02*
X101357143Y-151550057D01*
X101357143Y-151550057D02*
X101261905Y-151692914D01*
X101261905Y-151692914D02*
X101214286Y-151883390D01*
X101214286Y-151883390D02*
X101214286Y-152264342D01*
X101214286Y-152264342D02*
X101261905Y-152359580D01*
X101261905Y-152359580D02*
X101309524Y-152407200D01*
X101309524Y-152407200D02*
X101404762Y-152454819D01*
X101404762Y-152454819D02*
X101595238Y-152454819D01*
X101595238Y-152454819D02*
X101690476Y-152407200D01*
X101690476Y-152407200D02*
X101738095Y-152359580D01*
X101738095Y-152359580D02*
X101785714Y-152264342D01*
X101785714Y-152264342D02*
X101785714Y-152026247D01*
X101785714Y-152026247D02*
X101738095Y-151931009D01*
X101738095Y-151931009D02*
X101690476Y-151883390D01*
X101690476Y-151883390D02*
X101595238Y-151835771D01*
X101595238Y-151835771D02*
X101404762Y-151835771D01*
X101404762Y-151835771D02*
X101309524Y-151883390D01*
X101309524Y-151883390D02*
X101261905Y-151931009D01*
X101261905Y-151931009D02*
X101214286Y-152026247D01*
X152357142Y-138454819D02*
X152023809Y-137978628D01*
X151785714Y-138454819D02*
X151785714Y-137454819D01*
X151785714Y-137454819D02*
X152166666Y-137454819D01*
X152166666Y-137454819D02*
X152261904Y-137502438D01*
X152261904Y-137502438D02*
X152309523Y-137550057D01*
X152309523Y-137550057D02*
X152357142Y-137645295D01*
X152357142Y-137645295D02*
X152357142Y-137788152D01*
X152357142Y-137788152D02*
X152309523Y-137883390D01*
X152309523Y-137883390D02*
X152261904Y-137931009D01*
X152261904Y-137931009D02*
X152166666Y-137978628D01*
X152166666Y-137978628D02*
X151785714Y-137978628D01*
X152738095Y-137550057D02*
X152785714Y-137502438D01*
X152785714Y-137502438D02*
X152880952Y-137454819D01*
X152880952Y-137454819D02*
X153119047Y-137454819D01*
X153119047Y-137454819D02*
X153214285Y-137502438D01*
X153214285Y-137502438D02*
X153261904Y-137550057D01*
X153261904Y-137550057D02*
X153309523Y-137645295D01*
X153309523Y-137645295D02*
X153309523Y-137740533D01*
X153309523Y-137740533D02*
X153261904Y-137883390D01*
X153261904Y-137883390D02*
X152690476Y-138454819D01*
X152690476Y-138454819D02*
X153309523Y-138454819D01*
X154261904Y-138454819D02*
X153690476Y-138454819D01*
X153976190Y-138454819D02*
X153976190Y-137454819D01*
X153976190Y-137454819D02*
X153880952Y-137597676D01*
X153880952Y-137597676D02*
X153785714Y-137692914D01*
X153785714Y-137692914D02*
X153690476Y-137740533D01*
X126833333Y-145359580D02*
X126785714Y-145407200D01*
X126785714Y-145407200D02*
X126642857Y-145454819D01*
X126642857Y-145454819D02*
X126547619Y-145454819D01*
X126547619Y-145454819D02*
X126404762Y-145407200D01*
X126404762Y-145407200D02*
X126309524Y-145311961D01*
X126309524Y-145311961D02*
X126261905Y-145216723D01*
X126261905Y-145216723D02*
X126214286Y-145026247D01*
X126214286Y-145026247D02*
X126214286Y-144883390D01*
X126214286Y-144883390D02*
X126261905Y-144692914D01*
X126261905Y-144692914D02*
X126309524Y-144597676D01*
X126309524Y-144597676D02*
X126404762Y-144502438D01*
X126404762Y-144502438D02*
X126547619Y-144454819D01*
X126547619Y-144454819D02*
X126642857Y-144454819D01*
X126642857Y-144454819D02*
X126785714Y-144502438D01*
X126785714Y-144502438D02*
X126833333Y-144550057D01*
X127785714Y-145454819D02*
X127214286Y-145454819D01*
X127500000Y-145454819D02*
X127500000Y-144454819D01*
X127500000Y-144454819D02*
X127404762Y-144597676D01*
X127404762Y-144597676D02*
X127309524Y-144692914D01*
X127309524Y-144692914D02*
X127214286Y-144740533D01*
X139833333Y-152359580D02*
X139785714Y-152407200D01*
X139785714Y-152407200D02*
X139642857Y-152454819D01*
X139642857Y-152454819D02*
X139547619Y-152454819D01*
X139547619Y-152454819D02*
X139404762Y-152407200D01*
X139404762Y-152407200D02*
X139309524Y-152311961D01*
X139309524Y-152311961D02*
X139261905Y-152216723D01*
X139261905Y-152216723D02*
X139214286Y-152026247D01*
X139214286Y-152026247D02*
X139214286Y-151883390D01*
X139214286Y-151883390D02*
X139261905Y-151692914D01*
X139261905Y-151692914D02*
X139309524Y-151597676D01*
X139309524Y-151597676D02*
X139404762Y-151502438D01*
X139404762Y-151502438D02*
X139547619Y-151454819D01*
X139547619Y-151454819D02*
X139642857Y-151454819D01*
X139642857Y-151454819D02*
X139785714Y-151502438D01*
X139785714Y-151502438D02*
X139833333Y-151550057D01*
X140309524Y-152454819D02*
X140500000Y-152454819D01*
X140500000Y-152454819D02*
X140595238Y-152407200D01*
X140595238Y-152407200D02*
X140642857Y-152359580D01*
X140642857Y-152359580D02*
X140738095Y-152216723D01*
X140738095Y-152216723D02*
X140785714Y-152026247D01*
X140785714Y-152026247D02*
X140785714Y-151645295D01*
X140785714Y-151645295D02*
X140738095Y-151550057D01*
X140738095Y-151550057D02*
X140690476Y-151502438D01*
X140690476Y-151502438D02*
X140595238Y-151454819D01*
X140595238Y-151454819D02*
X140404762Y-151454819D01*
X140404762Y-151454819D02*
X140309524Y-151502438D01*
X140309524Y-151502438D02*
X140261905Y-151550057D01*
X140261905Y-151550057D02*
X140214286Y-151645295D01*
X140214286Y-151645295D02*
X140214286Y-151883390D01*
X140214286Y-151883390D02*
X140261905Y-151978628D01*
X140261905Y-151978628D02*
X140309524Y-152026247D01*
X140309524Y-152026247D02*
X140404762Y-152073866D01*
X140404762Y-152073866D02*
X140595238Y-152073866D01*
X140595238Y-152073866D02*
X140690476Y-152026247D01*
X140690476Y-152026247D02*
X140738095Y-151978628D01*
X140738095Y-151978628D02*
X140785714Y-151883390D01*
X152357142Y-131454819D02*
X152023809Y-130978628D01*
X151785714Y-131454819D02*
X151785714Y-130454819D01*
X151785714Y-130454819D02*
X152166666Y-130454819D01*
X152166666Y-130454819D02*
X152261904Y-130502438D01*
X152261904Y-130502438D02*
X152309523Y-130550057D01*
X152309523Y-130550057D02*
X152357142Y-130645295D01*
X152357142Y-130645295D02*
X152357142Y-130788152D01*
X152357142Y-130788152D02*
X152309523Y-130883390D01*
X152309523Y-130883390D02*
X152261904Y-130931009D01*
X152261904Y-130931009D02*
X152166666Y-130978628D01*
X152166666Y-130978628D02*
X151785714Y-130978628D01*
X153309523Y-131454819D02*
X152738095Y-131454819D01*
X153023809Y-131454819D02*
X153023809Y-130454819D01*
X153023809Y-130454819D02*
X152928571Y-130597676D01*
X152928571Y-130597676D02*
X152833333Y-130692914D01*
X152833333Y-130692914D02*
X152738095Y-130740533D01*
X153642857Y-130454819D02*
X154261904Y-130454819D01*
X154261904Y-130454819D02*
X153928571Y-130835771D01*
X153928571Y-130835771D02*
X154071428Y-130835771D01*
X154071428Y-130835771D02*
X154166666Y-130883390D01*
X154166666Y-130883390D02*
X154214285Y-130931009D01*
X154214285Y-130931009D02*
X154261904Y-131026247D01*
X154261904Y-131026247D02*
X154261904Y-131264342D01*
X154261904Y-131264342D02*
X154214285Y-131359580D01*
X154214285Y-131359580D02*
X154166666Y-131407200D01*
X154166666Y-131407200D02*
X154071428Y-131454819D01*
X154071428Y-131454819D02*
X153785714Y-131454819D01*
X153785714Y-131454819D02*
X153690476Y-131407200D01*
X153690476Y-131407200D02*
X153642857Y-131359580D01*
X130150952Y-69954819D02*
X129674762Y-69954819D01*
X129674762Y-69954819D02*
X129674762Y-68954819D01*
X130484286Y-69431009D02*
X130817619Y-69431009D01*
X130960476Y-69954819D02*
X130484286Y-69954819D01*
X130484286Y-69954819D02*
X130484286Y-68954819D01*
X130484286Y-68954819D02*
X130960476Y-68954819D01*
X131389048Y-69954819D02*
X131389048Y-68954819D01*
X131389048Y-68954819D02*
X131627143Y-68954819D01*
X131627143Y-68954819D02*
X131770000Y-69002438D01*
X131770000Y-69002438D02*
X131865238Y-69097676D01*
X131865238Y-69097676D02*
X131912857Y-69192914D01*
X131912857Y-69192914D02*
X131960476Y-69383390D01*
X131960476Y-69383390D02*
X131960476Y-69526247D01*
X131960476Y-69526247D02*
X131912857Y-69716723D01*
X131912857Y-69716723D02*
X131865238Y-69811961D01*
X131865238Y-69811961D02*
X131770000Y-69907200D01*
X131770000Y-69907200D02*
X131627143Y-69954819D01*
X131627143Y-69954819D02*
X131389048Y-69954819D01*
X132912857Y-69954819D02*
X132341429Y-69954819D01*
X132627143Y-69954819D02*
X132627143Y-68954819D01*
X132627143Y-68954819D02*
X132531905Y-69097676D01*
X132531905Y-69097676D02*
X132436667Y-69192914D01*
X132436667Y-69192914D02*
X132341429Y-69240533D01*
X126357142Y-138454819D02*
X126023809Y-137978628D01*
X125785714Y-138454819D02*
X125785714Y-137454819D01*
X125785714Y-137454819D02*
X126166666Y-137454819D01*
X126166666Y-137454819D02*
X126261904Y-137502438D01*
X126261904Y-137502438D02*
X126309523Y-137550057D01*
X126309523Y-137550057D02*
X126357142Y-137645295D01*
X126357142Y-137645295D02*
X126357142Y-137788152D01*
X126357142Y-137788152D02*
X126309523Y-137883390D01*
X126309523Y-137883390D02*
X126261904Y-137931009D01*
X126261904Y-137931009D02*
X126166666Y-137978628D01*
X126166666Y-137978628D02*
X125785714Y-137978628D01*
X127309523Y-138454819D02*
X126738095Y-138454819D01*
X127023809Y-138454819D02*
X127023809Y-137454819D01*
X127023809Y-137454819D02*
X126928571Y-137597676D01*
X126928571Y-137597676D02*
X126833333Y-137692914D01*
X126833333Y-137692914D02*
X126738095Y-137740533D01*
X127785714Y-138454819D02*
X127976190Y-138454819D01*
X127976190Y-138454819D02*
X128071428Y-138407200D01*
X128071428Y-138407200D02*
X128119047Y-138359580D01*
X128119047Y-138359580D02*
X128214285Y-138216723D01*
X128214285Y-138216723D02*
X128261904Y-138026247D01*
X128261904Y-138026247D02*
X128261904Y-137645295D01*
X128261904Y-137645295D02*
X128214285Y-137550057D01*
X128214285Y-137550057D02*
X128166666Y-137502438D01*
X128166666Y-137502438D02*
X128071428Y-137454819D01*
X128071428Y-137454819D02*
X127880952Y-137454819D01*
X127880952Y-137454819D02*
X127785714Y-137502438D01*
X127785714Y-137502438D02*
X127738095Y-137550057D01*
X127738095Y-137550057D02*
X127690476Y-137645295D01*
X127690476Y-137645295D02*
X127690476Y-137883390D01*
X127690476Y-137883390D02*
X127738095Y-137978628D01*
X127738095Y-137978628D02*
X127785714Y-138026247D01*
X127785714Y-138026247D02*
X127880952Y-138073866D01*
X127880952Y-138073866D02*
X128071428Y-138073866D01*
X128071428Y-138073866D02*
X128166666Y-138026247D01*
X128166666Y-138026247D02*
X128214285Y-137978628D01*
X128214285Y-137978628D02*
X128261904Y-137883390D01*
X139357142Y-138454819D02*
X139023809Y-137978628D01*
X138785714Y-138454819D02*
X138785714Y-137454819D01*
X138785714Y-137454819D02*
X139166666Y-137454819D01*
X139166666Y-137454819D02*
X139261904Y-137502438D01*
X139261904Y-137502438D02*
X139309523Y-137550057D01*
X139309523Y-137550057D02*
X139357142Y-137645295D01*
X139357142Y-137645295D02*
X139357142Y-137788152D01*
X139357142Y-137788152D02*
X139309523Y-137883390D01*
X139309523Y-137883390D02*
X139261904Y-137931009D01*
X139261904Y-137931009D02*
X139166666Y-137978628D01*
X139166666Y-137978628D02*
X138785714Y-137978628D01*
X139738095Y-137550057D02*
X139785714Y-137502438D01*
X139785714Y-137502438D02*
X139880952Y-137454819D01*
X139880952Y-137454819D02*
X140119047Y-137454819D01*
X140119047Y-137454819D02*
X140214285Y-137502438D01*
X140214285Y-137502438D02*
X140261904Y-137550057D01*
X140261904Y-137550057D02*
X140309523Y-137645295D01*
X140309523Y-137645295D02*
X140309523Y-137740533D01*
X140309523Y-137740533D02*
X140261904Y-137883390D01*
X140261904Y-137883390D02*
X139690476Y-138454819D01*
X139690476Y-138454819D02*
X140309523Y-138454819D01*
X140928571Y-137454819D02*
X141023809Y-137454819D01*
X141023809Y-137454819D02*
X141119047Y-137502438D01*
X141119047Y-137502438D02*
X141166666Y-137550057D01*
X141166666Y-137550057D02*
X141214285Y-137645295D01*
X141214285Y-137645295D02*
X141261904Y-137835771D01*
X141261904Y-137835771D02*
X141261904Y-138073866D01*
X141261904Y-138073866D02*
X141214285Y-138264342D01*
X141214285Y-138264342D02*
X141166666Y-138359580D01*
X141166666Y-138359580D02*
X141119047Y-138407200D01*
X141119047Y-138407200D02*
X141023809Y-138454819D01*
X141023809Y-138454819D02*
X140928571Y-138454819D01*
X140928571Y-138454819D02*
X140833333Y-138407200D01*
X140833333Y-138407200D02*
X140785714Y-138359580D01*
X140785714Y-138359580D02*
X140738095Y-138264342D01*
X140738095Y-138264342D02*
X140690476Y-138073866D01*
X140690476Y-138073866D02*
X140690476Y-137835771D01*
X140690476Y-137835771D02*
X140738095Y-137645295D01*
X140738095Y-137645295D02*
X140785714Y-137550057D01*
X140785714Y-137550057D02*
X140833333Y-137502438D01*
X140833333Y-137502438D02*
X140928571Y-137454819D01*
X87833333Y-131454819D02*
X87500000Y-130978628D01*
X87261905Y-131454819D02*
X87261905Y-130454819D01*
X87261905Y-130454819D02*
X87642857Y-130454819D01*
X87642857Y-130454819D02*
X87738095Y-130502438D01*
X87738095Y-130502438D02*
X87785714Y-130550057D01*
X87785714Y-130550057D02*
X87833333Y-130645295D01*
X87833333Y-130645295D02*
X87833333Y-130788152D01*
X87833333Y-130788152D02*
X87785714Y-130883390D01*
X87785714Y-130883390D02*
X87738095Y-130931009D01*
X87738095Y-130931009D02*
X87642857Y-130978628D01*
X87642857Y-130978628D02*
X87261905Y-130978628D01*
X88404762Y-130883390D02*
X88309524Y-130835771D01*
X88309524Y-130835771D02*
X88261905Y-130788152D01*
X88261905Y-130788152D02*
X88214286Y-130692914D01*
X88214286Y-130692914D02*
X88214286Y-130645295D01*
X88214286Y-130645295D02*
X88261905Y-130550057D01*
X88261905Y-130550057D02*
X88309524Y-130502438D01*
X88309524Y-130502438D02*
X88404762Y-130454819D01*
X88404762Y-130454819D02*
X88595238Y-130454819D01*
X88595238Y-130454819D02*
X88690476Y-130502438D01*
X88690476Y-130502438D02*
X88738095Y-130550057D01*
X88738095Y-130550057D02*
X88785714Y-130645295D01*
X88785714Y-130645295D02*
X88785714Y-130692914D01*
X88785714Y-130692914D02*
X88738095Y-130788152D01*
X88738095Y-130788152D02*
X88690476Y-130835771D01*
X88690476Y-130835771D02*
X88595238Y-130883390D01*
X88595238Y-130883390D02*
X88404762Y-130883390D01*
X88404762Y-130883390D02*
X88309524Y-130931009D01*
X88309524Y-130931009D02*
X88261905Y-130978628D01*
X88261905Y-130978628D02*
X88214286Y-131073866D01*
X88214286Y-131073866D02*
X88214286Y-131264342D01*
X88214286Y-131264342D02*
X88261905Y-131359580D01*
X88261905Y-131359580D02*
X88309524Y-131407200D01*
X88309524Y-131407200D02*
X88404762Y-131454819D01*
X88404762Y-131454819D02*
X88595238Y-131454819D01*
X88595238Y-131454819D02*
X88690476Y-131407200D01*
X88690476Y-131407200D02*
X88738095Y-131359580D01*
X88738095Y-131359580D02*
X88785714Y-131264342D01*
X88785714Y-131264342D02*
X88785714Y-131073866D01*
X88785714Y-131073866D02*
X88738095Y-130978628D01*
X88738095Y-130978628D02*
X88690476Y-130931009D01*
X88690476Y-130931009D02*
X88595238Y-130883390D01*
X108690476Y-69554819D02*
X109023809Y-70554819D01*
X109023809Y-70554819D02*
X109357142Y-69554819D01*
X110261904Y-70554819D02*
X109928571Y-70078628D01*
X109690476Y-70554819D02*
X109690476Y-69554819D01*
X109690476Y-69554819D02*
X110071428Y-69554819D01*
X110071428Y-69554819D02*
X110166666Y-69602438D01*
X110166666Y-69602438D02*
X110214285Y-69650057D01*
X110214285Y-69650057D02*
X110261904Y-69745295D01*
X110261904Y-69745295D02*
X110261904Y-69888152D01*
X110261904Y-69888152D02*
X110214285Y-69983390D01*
X110214285Y-69983390D02*
X110166666Y-70031009D01*
X110166666Y-70031009D02*
X110071428Y-70078628D01*
X110071428Y-70078628D02*
X109690476Y-70078628D01*
X111214285Y-70554819D02*
X110642857Y-70554819D01*
X110928571Y-70554819D02*
X110928571Y-69554819D01*
X110928571Y-69554819D02*
X110833333Y-69697676D01*
X110833333Y-69697676D02*
X110738095Y-69792914D01*
X110738095Y-69792914D02*
X110642857Y-69840533D01*
X165357142Y-152359580D02*
X165309523Y-152407200D01*
X165309523Y-152407200D02*
X165166666Y-152454819D01*
X165166666Y-152454819D02*
X165071428Y-152454819D01*
X165071428Y-152454819D02*
X164928571Y-152407200D01*
X164928571Y-152407200D02*
X164833333Y-152311961D01*
X164833333Y-152311961D02*
X164785714Y-152216723D01*
X164785714Y-152216723D02*
X164738095Y-152026247D01*
X164738095Y-152026247D02*
X164738095Y-151883390D01*
X164738095Y-151883390D02*
X164785714Y-151692914D01*
X164785714Y-151692914D02*
X164833333Y-151597676D01*
X164833333Y-151597676D02*
X164928571Y-151502438D01*
X164928571Y-151502438D02*
X165071428Y-151454819D01*
X165071428Y-151454819D02*
X165166666Y-151454819D01*
X165166666Y-151454819D02*
X165309523Y-151502438D01*
X165309523Y-151502438D02*
X165357142Y-151550057D01*
X166309523Y-152454819D02*
X165738095Y-152454819D01*
X166023809Y-152454819D02*
X166023809Y-151454819D01*
X166023809Y-151454819D02*
X165928571Y-151597676D01*
X165928571Y-151597676D02*
X165833333Y-151692914D01*
X165833333Y-151692914D02*
X165738095Y-151740533D01*
X167261904Y-152454819D02*
X166690476Y-152454819D01*
X166976190Y-152454819D02*
X166976190Y-151454819D01*
X166976190Y-151454819D02*
X166880952Y-151597676D01*
X166880952Y-151597676D02*
X166785714Y-151692914D01*
X166785714Y-151692914D02*
X166690476Y-151740533D01*
X87833333Y-124454819D02*
X87500000Y-123978628D01*
X87261905Y-124454819D02*
X87261905Y-123454819D01*
X87261905Y-123454819D02*
X87642857Y-123454819D01*
X87642857Y-123454819D02*
X87738095Y-123502438D01*
X87738095Y-123502438D02*
X87785714Y-123550057D01*
X87785714Y-123550057D02*
X87833333Y-123645295D01*
X87833333Y-123645295D02*
X87833333Y-123788152D01*
X87833333Y-123788152D02*
X87785714Y-123883390D01*
X87785714Y-123883390D02*
X87738095Y-123931009D01*
X87738095Y-123931009D02*
X87642857Y-123978628D01*
X87642857Y-123978628D02*
X87261905Y-123978628D01*
X88785714Y-124454819D02*
X88214286Y-124454819D01*
X88500000Y-124454819D02*
X88500000Y-123454819D01*
X88500000Y-123454819D02*
X88404762Y-123597676D01*
X88404762Y-123597676D02*
X88309524Y-123692914D01*
X88309524Y-123692914D02*
X88214286Y-123740533D01*
X100904761Y-144350057D02*
X100809523Y-144302438D01*
X100809523Y-144302438D02*
X100714285Y-144207200D01*
X100714285Y-144207200D02*
X100571428Y-144064342D01*
X100571428Y-144064342D02*
X100476190Y-144016723D01*
X100476190Y-144016723D02*
X100380952Y-144016723D01*
X100428571Y-144254819D02*
X100333333Y-144207200D01*
X100333333Y-144207200D02*
X100238095Y-144111961D01*
X100238095Y-144111961D02*
X100190476Y-143921485D01*
X100190476Y-143921485D02*
X100190476Y-143588152D01*
X100190476Y-143588152D02*
X100238095Y-143397676D01*
X100238095Y-143397676D02*
X100333333Y-143302438D01*
X100333333Y-143302438D02*
X100428571Y-143254819D01*
X100428571Y-143254819D02*
X100619047Y-143254819D01*
X100619047Y-143254819D02*
X100714285Y-143302438D01*
X100714285Y-143302438D02*
X100809523Y-143397676D01*
X100809523Y-143397676D02*
X100857142Y-143588152D01*
X100857142Y-143588152D02*
X100857142Y-143921485D01*
X100857142Y-143921485D02*
X100809523Y-144111961D01*
X100809523Y-144111961D02*
X100714285Y-144207200D01*
X100714285Y-144207200D02*
X100619047Y-144254819D01*
X100619047Y-144254819D02*
X100428571Y-144254819D01*
X101809523Y-144254819D02*
X101238095Y-144254819D01*
X101523809Y-144254819D02*
X101523809Y-143254819D01*
X101523809Y-143254819D02*
X101428571Y-143397676D01*
X101428571Y-143397676D02*
X101333333Y-143492914D01*
X101333333Y-143492914D02*
X101238095Y-143540533D01*
X126833333Y-124454819D02*
X126500000Y-123978628D01*
X126261905Y-124454819D02*
X126261905Y-123454819D01*
X126261905Y-123454819D02*
X126642857Y-123454819D01*
X126642857Y-123454819D02*
X126738095Y-123502438D01*
X126738095Y-123502438D02*
X126785714Y-123550057D01*
X126785714Y-123550057D02*
X126833333Y-123645295D01*
X126833333Y-123645295D02*
X126833333Y-123788152D01*
X126833333Y-123788152D02*
X126785714Y-123883390D01*
X126785714Y-123883390D02*
X126738095Y-123931009D01*
X126738095Y-123931009D02*
X126642857Y-123978628D01*
X126642857Y-123978628D02*
X126261905Y-123978628D01*
X127690476Y-123788152D02*
X127690476Y-124454819D01*
X127452381Y-123407200D02*
X127214286Y-124121485D01*
X127214286Y-124121485D02*
X127833333Y-124121485D01*
X165833333Y-124454819D02*
X165500000Y-123978628D01*
X165261905Y-124454819D02*
X165261905Y-123454819D01*
X165261905Y-123454819D02*
X165642857Y-123454819D01*
X165642857Y-123454819D02*
X165738095Y-123502438D01*
X165738095Y-123502438D02*
X165785714Y-123550057D01*
X165785714Y-123550057D02*
X165833333Y-123645295D01*
X165833333Y-123645295D02*
X165833333Y-123788152D01*
X165833333Y-123788152D02*
X165785714Y-123883390D01*
X165785714Y-123883390D02*
X165738095Y-123931009D01*
X165738095Y-123931009D02*
X165642857Y-123978628D01*
X165642857Y-123978628D02*
X165261905Y-123978628D01*
X166166667Y-123454819D02*
X166833333Y-123454819D01*
X166833333Y-123454819D02*
X166404762Y-124454819D01*
X165833333Y-145359580D02*
X165785714Y-145407200D01*
X165785714Y-145407200D02*
X165642857Y-145454819D01*
X165642857Y-145454819D02*
X165547619Y-145454819D01*
X165547619Y-145454819D02*
X165404762Y-145407200D01*
X165404762Y-145407200D02*
X165309524Y-145311961D01*
X165309524Y-145311961D02*
X165261905Y-145216723D01*
X165261905Y-145216723D02*
X165214286Y-145026247D01*
X165214286Y-145026247D02*
X165214286Y-144883390D01*
X165214286Y-144883390D02*
X165261905Y-144692914D01*
X165261905Y-144692914D02*
X165309524Y-144597676D01*
X165309524Y-144597676D02*
X165404762Y-144502438D01*
X165404762Y-144502438D02*
X165547619Y-144454819D01*
X165547619Y-144454819D02*
X165642857Y-144454819D01*
X165642857Y-144454819D02*
X165785714Y-144502438D01*
X165785714Y-144502438D02*
X165833333Y-144550057D01*
X166690476Y-144788152D02*
X166690476Y-145454819D01*
X166452381Y-144407200D02*
X166214286Y-145121485D01*
X166214286Y-145121485D02*
X166833333Y-145121485D01*
X113833333Y-124454819D02*
X113500000Y-123978628D01*
X113261905Y-124454819D02*
X113261905Y-123454819D01*
X113261905Y-123454819D02*
X113642857Y-123454819D01*
X113642857Y-123454819D02*
X113738095Y-123502438D01*
X113738095Y-123502438D02*
X113785714Y-123550057D01*
X113785714Y-123550057D02*
X113833333Y-123645295D01*
X113833333Y-123645295D02*
X113833333Y-123788152D01*
X113833333Y-123788152D02*
X113785714Y-123883390D01*
X113785714Y-123883390D02*
X113738095Y-123931009D01*
X113738095Y-123931009D02*
X113642857Y-123978628D01*
X113642857Y-123978628D02*
X113261905Y-123978628D01*
X114166667Y-123454819D02*
X114785714Y-123454819D01*
X114785714Y-123454819D02*
X114452381Y-123835771D01*
X114452381Y-123835771D02*
X114595238Y-123835771D01*
X114595238Y-123835771D02*
X114690476Y-123883390D01*
X114690476Y-123883390D02*
X114738095Y-123931009D01*
X114738095Y-123931009D02*
X114785714Y-124026247D01*
X114785714Y-124026247D02*
X114785714Y-124264342D01*
X114785714Y-124264342D02*
X114738095Y-124359580D01*
X114738095Y-124359580D02*
X114690476Y-124407200D01*
X114690476Y-124407200D02*
X114595238Y-124454819D01*
X114595238Y-124454819D02*
X114309524Y-124454819D01*
X114309524Y-124454819D02*
X114214286Y-124407200D01*
X114214286Y-124407200D02*
X114166667Y-124359580D01*
X164666666Y-83954819D02*
X164666666Y-84669104D01*
X164666666Y-84669104D02*
X164619047Y-84811961D01*
X164619047Y-84811961D02*
X164523809Y-84907200D01*
X164523809Y-84907200D02*
X164380952Y-84954819D01*
X164380952Y-84954819D02*
X164285714Y-84954819D01*
X165095238Y-84050057D02*
X165142857Y-84002438D01*
X165142857Y-84002438D02*
X165238095Y-83954819D01*
X165238095Y-83954819D02*
X165476190Y-83954819D01*
X165476190Y-83954819D02*
X165571428Y-84002438D01*
X165571428Y-84002438D02*
X165619047Y-84050057D01*
X165619047Y-84050057D02*
X165666666Y-84145295D01*
X165666666Y-84145295D02*
X165666666Y-84240533D01*
X165666666Y-84240533D02*
X165619047Y-84383390D01*
X165619047Y-84383390D02*
X165047619Y-84954819D01*
X165047619Y-84954819D02*
X165666666Y-84954819D01*
X113357142Y-138454819D02*
X113023809Y-137978628D01*
X112785714Y-138454819D02*
X112785714Y-137454819D01*
X112785714Y-137454819D02*
X113166666Y-137454819D01*
X113166666Y-137454819D02*
X113261904Y-137502438D01*
X113261904Y-137502438D02*
X113309523Y-137550057D01*
X113309523Y-137550057D02*
X113357142Y-137645295D01*
X113357142Y-137645295D02*
X113357142Y-137788152D01*
X113357142Y-137788152D02*
X113309523Y-137883390D01*
X113309523Y-137883390D02*
X113261904Y-137931009D01*
X113261904Y-137931009D02*
X113166666Y-137978628D01*
X113166666Y-137978628D02*
X112785714Y-137978628D01*
X114309523Y-138454819D02*
X113738095Y-138454819D01*
X114023809Y-138454819D02*
X114023809Y-137454819D01*
X114023809Y-137454819D02*
X113928571Y-137597676D01*
X113928571Y-137597676D02*
X113833333Y-137692914D01*
X113833333Y-137692914D02*
X113738095Y-137740533D01*
X114880952Y-137883390D02*
X114785714Y-137835771D01*
X114785714Y-137835771D02*
X114738095Y-137788152D01*
X114738095Y-137788152D02*
X114690476Y-137692914D01*
X114690476Y-137692914D02*
X114690476Y-137645295D01*
X114690476Y-137645295D02*
X114738095Y-137550057D01*
X114738095Y-137550057D02*
X114785714Y-137502438D01*
X114785714Y-137502438D02*
X114880952Y-137454819D01*
X114880952Y-137454819D02*
X115071428Y-137454819D01*
X115071428Y-137454819D02*
X115166666Y-137502438D01*
X115166666Y-137502438D02*
X115214285Y-137550057D01*
X115214285Y-137550057D02*
X115261904Y-137645295D01*
X115261904Y-137645295D02*
X115261904Y-137692914D01*
X115261904Y-137692914D02*
X115214285Y-137788152D01*
X115214285Y-137788152D02*
X115166666Y-137835771D01*
X115166666Y-137835771D02*
X115071428Y-137883390D01*
X115071428Y-137883390D02*
X114880952Y-137883390D01*
X114880952Y-137883390D02*
X114785714Y-137931009D01*
X114785714Y-137931009D02*
X114738095Y-137978628D01*
X114738095Y-137978628D02*
X114690476Y-138073866D01*
X114690476Y-138073866D02*
X114690476Y-138264342D01*
X114690476Y-138264342D02*
X114738095Y-138359580D01*
X114738095Y-138359580D02*
X114785714Y-138407200D01*
X114785714Y-138407200D02*
X114880952Y-138454819D01*
X114880952Y-138454819D02*
X115071428Y-138454819D01*
X115071428Y-138454819D02*
X115166666Y-138407200D01*
X115166666Y-138407200D02*
X115214285Y-138359580D01*
X115214285Y-138359580D02*
X115261904Y-138264342D01*
X115261904Y-138264342D02*
X115261904Y-138073866D01*
X115261904Y-138073866D02*
X115214285Y-137978628D01*
X115214285Y-137978628D02*
X115166666Y-137931009D01*
X115166666Y-137931009D02*
X115071428Y-137883390D01*
X100833333Y-131454819D02*
X100500000Y-130978628D01*
X100261905Y-131454819D02*
X100261905Y-130454819D01*
X100261905Y-130454819D02*
X100642857Y-130454819D01*
X100642857Y-130454819D02*
X100738095Y-130502438D01*
X100738095Y-130502438D02*
X100785714Y-130550057D01*
X100785714Y-130550057D02*
X100833333Y-130645295D01*
X100833333Y-130645295D02*
X100833333Y-130788152D01*
X100833333Y-130788152D02*
X100785714Y-130883390D01*
X100785714Y-130883390D02*
X100738095Y-130931009D01*
X100738095Y-130931009D02*
X100642857Y-130978628D01*
X100642857Y-130978628D02*
X100261905Y-130978628D01*
X101309524Y-131454819D02*
X101500000Y-131454819D01*
X101500000Y-131454819D02*
X101595238Y-131407200D01*
X101595238Y-131407200D02*
X101642857Y-131359580D01*
X101642857Y-131359580D02*
X101738095Y-131216723D01*
X101738095Y-131216723D02*
X101785714Y-131026247D01*
X101785714Y-131026247D02*
X101785714Y-130645295D01*
X101785714Y-130645295D02*
X101738095Y-130550057D01*
X101738095Y-130550057D02*
X101690476Y-130502438D01*
X101690476Y-130502438D02*
X101595238Y-130454819D01*
X101595238Y-130454819D02*
X101404762Y-130454819D01*
X101404762Y-130454819D02*
X101309524Y-130502438D01*
X101309524Y-130502438D02*
X101261905Y-130550057D01*
X101261905Y-130550057D02*
X101214286Y-130645295D01*
X101214286Y-130645295D02*
X101214286Y-130883390D01*
X101214286Y-130883390D02*
X101261905Y-130978628D01*
X101261905Y-130978628D02*
X101309524Y-131026247D01*
X101309524Y-131026247D02*
X101404762Y-131073866D01*
X101404762Y-131073866D02*
X101595238Y-131073866D01*
X101595238Y-131073866D02*
X101690476Y-131026247D01*
X101690476Y-131026247D02*
X101738095Y-130978628D01*
X101738095Y-130978628D02*
X101785714Y-130883390D01*
X131206667Y-170827200D02*
X131349524Y-170874819D01*
X131349524Y-170874819D02*
X131587619Y-170874819D01*
X131587619Y-170874819D02*
X131682857Y-170827200D01*
X131682857Y-170827200D02*
X131730476Y-170779580D01*
X131730476Y-170779580D02*
X131778095Y-170684342D01*
X131778095Y-170684342D02*
X131778095Y-170589104D01*
X131778095Y-170589104D02*
X131730476Y-170493866D01*
X131730476Y-170493866D02*
X131682857Y-170446247D01*
X131682857Y-170446247D02*
X131587619Y-170398628D01*
X131587619Y-170398628D02*
X131397143Y-170351009D01*
X131397143Y-170351009D02*
X131301905Y-170303390D01*
X131301905Y-170303390D02*
X131254286Y-170255771D01*
X131254286Y-170255771D02*
X131206667Y-170160533D01*
X131206667Y-170160533D02*
X131206667Y-170065295D01*
X131206667Y-170065295D02*
X131254286Y-169970057D01*
X131254286Y-169970057D02*
X131301905Y-169922438D01*
X131301905Y-169922438D02*
X131397143Y-169874819D01*
X131397143Y-169874819D02*
X131635238Y-169874819D01*
X131635238Y-169874819D02*
X131778095Y-169922438D01*
X132111429Y-169874819D02*
X132349524Y-170874819D01*
X132349524Y-170874819D02*
X132540000Y-170160533D01*
X132540000Y-170160533D02*
X132730476Y-170874819D01*
X132730476Y-170874819D02*
X132968572Y-169874819D01*
X133873333Y-170874819D02*
X133301905Y-170874819D01*
X133587619Y-170874819D02*
X133587619Y-169874819D01*
X133587619Y-169874819D02*
X133492381Y-170017676D01*
X133492381Y-170017676D02*
X133397143Y-170112914D01*
X133397143Y-170112914D02*
X133301905Y-170160533D01*
X126833333Y-152359580D02*
X126785714Y-152407200D01*
X126785714Y-152407200D02*
X126642857Y-152454819D01*
X126642857Y-152454819D02*
X126547619Y-152454819D01*
X126547619Y-152454819D02*
X126404762Y-152407200D01*
X126404762Y-152407200D02*
X126309524Y-152311961D01*
X126309524Y-152311961D02*
X126261905Y-152216723D01*
X126261905Y-152216723D02*
X126214286Y-152026247D01*
X126214286Y-152026247D02*
X126214286Y-151883390D01*
X126214286Y-151883390D02*
X126261905Y-151692914D01*
X126261905Y-151692914D02*
X126309524Y-151597676D01*
X126309524Y-151597676D02*
X126404762Y-151502438D01*
X126404762Y-151502438D02*
X126547619Y-151454819D01*
X126547619Y-151454819D02*
X126642857Y-151454819D01*
X126642857Y-151454819D02*
X126785714Y-151502438D01*
X126785714Y-151502438D02*
X126833333Y-151550057D01*
X127404762Y-151883390D02*
X127309524Y-151835771D01*
X127309524Y-151835771D02*
X127261905Y-151788152D01*
X127261905Y-151788152D02*
X127214286Y-151692914D01*
X127214286Y-151692914D02*
X127214286Y-151645295D01*
X127214286Y-151645295D02*
X127261905Y-151550057D01*
X127261905Y-151550057D02*
X127309524Y-151502438D01*
X127309524Y-151502438D02*
X127404762Y-151454819D01*
X127404762Y-151454819D02*
X127595238Y-151454819D01*
X127595238Y-151454819D02*
X127690476Y-151502438D01*
X127690476Y-151502438D02*
X127738095Y-151550057D01*
X127738095Y-151550057D02*
X127785714Y-151645295D01*
X127785714Y-151645295D02*
X127785714Y-151692914D01*
X127785714Y-151692914D02*
X127738095Y-151788152D01*
X127738095Y-151788152D02*
X127690476Y-151835771D01*
X127690476Y-151835771D02*
X127595238Y-151883390D01*
X127595238Y-151883390D02*
X127404762Y-151883390D01*
X127404762Y-151883390D02*
X127309524Y-151931009D01*
X127309524Y-151931009D02*
X127261905Y-151978628D01*
X127261905Y-151978628D02*
X127214286Y-152073866D01*
X127214286Y-152073866D02*
X127214286Y-152264342D01*
X127214286Y-152264342D02*
X127261905Y-152359580D01*
X127261905Y-152359580D02*
X127309524Y-152407200D01*
X127309524Y-152407200D02*
X127404762Y-152454819D01*
X127404762Y-152454819D02*
X127595238Y-152454819D01*
X127595238Y-152454819D02*
X127690476Y-152407200D01*
X127690476Y-152407200D02*
X127738095Y-152359580D01*
X127738095Y-152359580D02*
X127785714Y-152264342D01*
X127785714Y-152264342D02*
X127785714Y-152073866D01*
X127785714Y-152073866D02*
X127738095Y-151978628D01*
X127738095Y-151978628D02*
X127690476Y-151931009D01*
X127690476Y-151931009D02*
X127595238Y-151883390D01*
X87357142Y-166454819D02*
X87023809Y-165978628D01*
X86785714Y-166454819D02*
X86785714Y-165454819D01*
X86785714Y-165454819D02*
X87166666Y-165454819D01*
X87166666Y-165454819D02*
X87261904Y-165502438D01*
X87261904Y-165502438D02*
X87309523Y-165550057D01*
X87309523Y-165550057D02*
X87357142Y-165645295D01*
X87357142Y-165645295D02*
X87357142Y-165788152D01*
X87357142Y-165788152D02*
X87309523Y-165883390D01*
X87309523Y-165883390D02*
X87261904Y-165931009D01*
X87261904Y-165931009D02*
X87166666Y-165978628D01*
X87166666Y-165978628D02*
X86785714Y-165978628D01*
X88309523Y-166454819D02*
X87738095Y-166454819D01*
X88023809Y-166454819D02*
X88023809Y-165454819D01*
X88023809Y-165454819D02*
X87928571Y-165597676D01*
X87928571Y-165597676D02*
X87833333Y-165692914D01*
X87833333Y-165692914D02*
X87738095Y-165740533D01*
X89166666Y-165454819D02*
X88976190Y-165454819D01*
X88976190Y-165454819D02*
X88880952Y-165502438D01*
X88880952Y-165502438D02*
X88833333Y-165550057D01*
X88833333Y-165550057D02*
X88738095Y-165692914D01*
X88738095Y-165692914D02*
X88690476Y-165883390D01*
X88690476Y-165883390D02*
X88690476Y-166264342D01*
X88690476Y-166264342D02*
X88738095Y-166359580D01*
X88738095Y-166359580D02*
X88785714Y-166407200D01*
X88785714Y-166407200D02*
X88880952Y-166454819D01*
X88880952Y-166454819D02*
X89071428Y-166454819D01*
X89071428Y-166454819D02*
X89166666Y-166407200D01*
X89166666Y-166407200D02*
X89214285Y-166359580D01*
X89214285Y-166359580D02*
X89261904Y-166264342D01*
X89261904Y-166264342D02*
X89261904Y-166026247D01*
X89261904Y-166026247D02*
X89214285Y-165931009D01*
X89214285Y-165931009D02*
X89166666Y-165883390D01*
X89166666Y-165883390D02*
X89071428Y-165835771D01*
X89071428Y-165835771D02*
X88880952Y-165835771D01*
X88880952Y-165835771D02*
X88785714Y-165883390D01*
X88785714Y-165883390D02*
X88738095Y-165931009D01*
X88738095Y-165931009D02*
X88690476Y-166026247D01*
X152833333Y-124454819D02*
X152500000Y-123978628D01*
X152261905Y-124454819D02*
X152261905Y-123454819D01*
X152261905Y-123454819D02*
X152642857Y-123454819D01*
X152642857Y-123454819D02*
X152738095Y-123502438D01*
X152738095Y-123502438D02*
X152785714Y-123550057D01*
X152785714Y-123550057D02*
X152833333Y-123645295D01*
X152833333Y-123645295D02*
X152833333Y-123788152D01*
X152833333Y-123788152D02*
X152785714Y-123883390D01*
X152785714Y-123883390D02*
X152738095Y-123931009D01*
X152738095Y-123931009D02*
X152642857Y-123978628D01*
X152642857Y-123978628D02*
X152261905Y-123978628D01*
X153690476Y-123454819D02*
X153500000Y-123454819D01*
X153500000Y-123454819D02*
X153404762Y-123502438D01*
X153404762Y-123502438D02*
X153357143Y-123550057D01*
X153357143Y-123550057D02*
X153261905Y-123692914D01*
X153261905Y-123692914D02*
X153214286Y-123883390D01*
X153214286Y-123883390D02*
X153214286Y-124264342D01*
X153214286Y-124264342D02*
X153261905Y-124359580D01*
X153261905Y-124359580D02*
X153309524Y-124407200D01*
X153309524Y-124407200D02*
X153404762Y-124454819D01*
X153404762Y-124454819D02*
X153595238Y-124454819D01*
X153595238Y-124454819D02*
X153690476Y-124407200D01*
X153690476Y-124407200D02*
X153738095Y-124359580D01*
X153738095Y-124359580D02*
X153785714Y-124264342D01*
X153785714Y-124264342D02*
X153785714Y-124026247D01*
X153785714Y-124026247D02*
X153738095Y-123931009D01*
X153738095Y-123931009D02*
X153690476Y-123883390D01*
X153690476Y-123883390D02*
X153595238Y-123835771D01*
X153595238Y-123835771D02*
X153404762Y-123835771D01*
X153404762Y-123835771D02*
X153309524Y-123883390D01*
X153309524Y-123883390D02*
X153261905Y-123931009D01*
X153261905Y-123931009D02*
X153214286Y-124026247D01*
X139833333Y-145359580D02*
X139785714Y-145407200D01*
X139785714Y-145407200D02*
X139642857Y-145454819D01*
X139642857Y-145454819D02*
X139547619Y-145454819D01*
X139547619Y-145454819D02*
X139404762Y-145407200D01*
X139404762Y-145407200D02*
X139309524Y-145311961D01*
X139309524Y-145311961D02*
X139261905Y-145216723D01*
X139261905Y-145216723D02*
X139214286Y-145026247D01*
X139214286Y-145026247D02*
X139214286Y-144883390D01*
X139214286Y-144883390D02*
X139261905Y-144692914D01*
X139261905Y-144692914D02*
X139309524Y-144597676D01*
X139309524Y-144597676D02*
X139404762Y-144502438D01*
X139404762Y-144502438D02*
X139547619Y-144454819D01*
X139547619Y-144454819D02*
X139642857Y-144454819D01*
X139642857Y-144454819D02*
X139785714Y-144502438D01*
X139785714Y-144502438D02*
X139833333Y-144550057D01*
X140214286Y-144550057D02*
X140261905Y-144502438D01*
X140261905Y-144502438D02*
X140357143Y-144454819D01*
X140357143Y-144454819D02*
X140595238Y-144454819D01*
X140595238Y-144454819D02*
X140690476Y-144502438D01*
X140690476Y-144502438D02*
X140738095Y-144550057D01*
X140738095Y-144550057D02*
X140785714Y-144645295D01*
X140785714Y-144645295D02*
X140785714Y-144740533D01*
X140785714Y-144740533D02*
X140738095Y-144883390D01*
X140738095Y-144883390D02*
X140166667Y-145454819D01*
X140166667Y-145454819D02*
X140785714Y-145454819D01*
X87214285Y-158931009D02*
X87357142Y-158978628D01*
X87357142Y-158978628D02*
X87404761Y-159026247D01*
X87404761Y-159026247D02*
X87452380Y-159121485D01*
X87452380Y-159121485D02*
X87452380Y-159264342D01*
X87452380Y-159264342D02*
X87404761Y-159359580D01*
X87404761Y-159359580D02*
X87357142Y-159407200D01*
X87357142Y-159407200D02*
X87261904Y-159454819D01*
X87261904Y-159454819D02*
X86880952Y-159454819D01*
X86880952Y-159454819D02*
X86880952Y-158454819D01*
X86880952Y-158454819D02*
X87214285Y-158454819D01*
X87214285Y-158454819D02*
X87309523Y-158502438D01*
X87309523Y-158502438D02*
X87357142Y-158550057D01*
X87357142Y-158550057D02*
X87404761Y-158645295D01*
X87404761Y-158645295D02*
X87404761Y-158740533D01*
X87404761Y-158740533D02*
X87357142Y-158835771D01*
X87357142Y-158835771D02*
X87309523Y-158883390D01*
X87309523Y-158883390D02*
X87214285Y-158931009D01*
X87214285Y-158931009D02*
X86880952Y-158931009D01*
X87738095Y-158454819D02*
X88309523Y-158454819D01*
X88023809Y-159454819D02*
X88023809Y-158454819D01*
X89166666Y-159454819D02*
X88595238Y-159454819D01*
X88880952Y-159454819D02*
X88880952Y-158454819D01*
X88880952Y-158454819D02*
X88785714Y-158597676D01*
X88785714Y-158597676D02*
X88690476Y-158692914D01*
X88690476Y-158692914D02*
X88595238Y-158740533D01*
X151023810Y-88454819D02*
X151023810Y-87454819D01*
X152071428Y-88359580D02*
X152023809Y-88407200D01*
X152023809Y-88407200D02*
X151880952Y-88454819D01*
X151880952Y-88454819D02*
X151785714Y-88454819D01*
X151785714Y-88454819D02*
X151642857Y-88407200D01*
X151642857Y-88407200D02*
X151547619Y-88311961D01*
X151547619Y-88311961D02*
X151500000Y-88216723D01*
X151500000Y-88216723D02*
X151452381Y-88026247D01*
X151452381Y-88026247D02*
X151452381Y-87883390D01*
X151452381Y-87883390D02*
X151500000Y-87692914D01*
X151500000Y-87692914D02*
X151547619Y-87597676D01*
X151547619Y-87597676D02*
X151642857Y-87502438D01*
X151642857Y-87502438D02*
X151785714Y-87454819D01*
X151785714Y-87454819D02*
X151880952Y-87454819D01*
X151880952Y-87454819D02*
X152023809Y-87502438D01*
X152023809Y-87502438D02*
X152071428Y-87550057D01*
X152404762Y-87454819D02*
X153023809Y-87454819D01*
X153023809Y-87454819D02*
X152690476Y-87835771D01*
X152690476Y-87835771D02*
X152833333Y-87835771D01*
X152833333Y-87835771D02*
X152928571Y-87883390D01*
X152928571Y-87883390D02*
X152976190Y-87931009D01*
X152976190Y-87931009D02*
X153023809Y-88026247D01*
X153023809Y-88026247D02*
X153023809Y-88264342D01*
X153023809Y-88264342D02*
X152976190Y-88359580D01*
X152976190Y-88359580D02*
X152928571Y-88407200D01*
X152928571Y-88407200D02*
X152833333Y-88454819D01*
X152833333Y-88454819D02*
X152547619Y-88454819D01*
X152547619Y-88454819D02*
X152452381Y-88407200D01*
X152452381Y-88407200D02*
X152404762Y-88359580D01*
X82666666Y-85954819D02*
X82666666Y-86669104D01*
X82666666Y-86669104D02*
X82619047Y-86811961D01*
X82619047Y-86811961D02*
X82523809Y-86907200D01*
X82523809Y-86907200D02*
X82380952Y-86954819D01*
X82380952Y-86954819D02*
X82285714Y-86954819D01*
X83666666Y-86954819D02*
X83095238Y-86954819D01*
X83380952Y-86954819D02*
X83380952Y-85954819D01*
X83380952Y-85954819D02*
X83285714Y-86097676D01*
X83285714Y-86097676D02*
X83190476Y-86192914D01*
X83190476Y-86192914D02*
X83095238Y-86240533D01*
%LPC*%
D12*
%TO.C,C7*%
X114000000Y-154000000D03*
D13*
X116000000Y-154000000D03*
%TD*%
%TO.C,R17*%
X101000000Y-140000000D03*
D14*
X111160000Y-140000000D03*
%TD*%
D13*
%TO.C,R12*%
X140000000Y-133000000D03*
D14*
X150160000Y-133000000D03*
%TD*%
D13*
%TO.C,C10*%
X153000000Y-154000000D03*
X155000000Y-154000000D03*
%TD*%
D12*
%TO.C,U1*%
X100000000Y-90000000D03*
D14*
X100000000Y-92540000D03*
X100000000Y-95080000D03*
X100000000Y-97620000D03*
X107620000Y-97620000D03*
X107620000Y-95080000D03*
X107620000Y-92540000D03*
X107620000Y-90000000D03*
%TD*%
D12*
%TO.C,D1*%
X166000000Y-140000000D03*
D14*
X176160000Y-140000000D03*
%TD*%
D13*
%TO.C,R14*%
X166000000Y-133000000D03*
D14*
X176160000Y-133000000D03*
%TD*%
D13*
%TO.C,R10*%
X114000000Y-133000000D03*
D14*
X124160000Y-133000000D03*
%TD*%
D12*
%TO.C,D2*%
X88000000Y-147000000D03*
D14*
X98160000Y-147000000D03*
%TD*%
D13*
%TO.C,C3*%
X153000000Y-147000000D03*
X155000000Y-147000000D03*
%TD*%
D15*
%TO.C,Q2*%
X114000000Y-147000000D03*
D16*
X115270000Y-145730000D03*
X116540000Y-147000000D03*
%TD*%
D12*
%TO.C,IC1*%
X122000000Y-90000000D03*
D14*
X122000000Y-92540000D03*
X122000000Y-95080000D03*
X122000000Y-97620000D03*
X122000000Y-100160000D03*
X122000000Y-102700000D03*
X122000000Y-105240000D03*
X122000000Y-107780000D03*
X129620000Y-107780000D03*
X129620000Y-105240000D03*
X129620000Y-102700000D03*
X129620000Y-100160000D03*
X129620000Y-97620000D03*
X129620000Y-95080000D03*
X129620000Y-92540000D03*
X129620000Y-90000000D03*
%TD*%
D13*
%TO.C,R2*%
X101000000Y-126000000D03*
D14*
X111160000Y-126000000D03*
%TD*%
D13*
%TO.C,R5*%
X140000000Y-126000000D03*
D14*
X150160000Y-126000000D03*
%TD*%
D13*
%TO.C,R11*%
X127000000Y-133000000D03*
D14*
X137160000Y-133000000D03*
%TD*%
D13*
%TO.C,R15*%
X88000000Y-140000000D03*
D14*
X98160000Y-140000000D03*
%TD*%
D17*
%TO.C,RL1*%
X140300000Y-121000000D03*
X135260000Y-121000000D03*
X145340000Y-121000000D03*
X140300000Y-113500000D03*
X135260000Y-113500000D03*
X145340000Y-113500000D03*
D18*
X120000000Y-121000000D03*
D19*
X120000000Y-113500000D03*
%TD*%
D20*
%TO.C,MH4*%
X174000000Y-186000000D03*
%TD*%
D21*
%TO.C,VR2*%
X150000000Y-72000000D03*
D22*
X150000000Y-74500000D03*
X150000000Y-77000000D03*
D23*
X157000000Y-70100000D03*
X157000000Y-78900000D03*
%TD*%
D20*
%TO.C,MH2*%
X174000000Y-66000000D03*
%TD*%
D13*
%TO.C,C5*%
X88000000Y-154000000D03*
X90000000Y-154000000D03*
%TD*%
%TO.C,C6*%
X101000000Y-154000000D03*
X103500000Y-154000000D03*
%TD*%
%TO.C,R21*%
X153000000Y-140000000D03*
D14*
X163160000Y-140000000D03*
%TD*%
D12*
%TO.C,C1*%
X127000000Y-147000000D03*
D13*
X129500000Y-147000000D03*
%TD*%
%TO.C,C9*%
X140000000Y-154000000D03*
X142000000Y-154000000D03*
%TD*%
D20*
%TO.C,MH1*%
X86000000Y-66000000D03*
%TD*%
D13*
%TO.C,R13*%
X153000000Y-133000000D03*
D14*
X163160000Y-133000000D03*
%TD*%
D21*
%TO.C,LED1*%
X130000000Y-72000000D03*
D22*
X132540000Y-72000000D03*
%TD*%
D13*
%TO.C,R19*%
X127000000Y-140000000D03*
D14*
X137160000Y-140000000D03*
%TD*%
D13*
%TO.C,R20*%
X140000000Y-140000000D03*
D14*
X150160000Y-140000000D03*
%TD*%
D20*
%TO.C,MH3*%
X86000000Y-186000000D03*
%TD*%
D13*
%TO.C,R8*%
X88000000Y-133000000D03*
D14*
X98160000Y-133000000D03*
%TD*%
D21*
%TO.C,VR1*%
X110000000Y-72100000D03*
D22*
X110000000Y-74600000D03*
X110000000Y-77100000D03*
D23*
X117000000Y-70200000D03*
X117000000Y-79000000D03*
%TD*%
D13*
%TO.C,C11*%
X166000000Y-154000000D03*
X168000000Y-154000000D03*
%TD*%
%TO.C,R1*%
X88000000Y-126000000D03*
D14*
X98160000Y-126000000D03*
%TD*%
D15*
%TO.C,Q1*%
X101000000Y-147000000D03*
D16*
X102270000Y-145730000D03*
X103540000Y-147000000D03*
%TD*%
D13*
%TO.C,R4*%
X127000000Y-126000000D03*
D14*
X137160000Y-126000000D03*
%TD*%
D13*
%TO.C,R7*%
X166000000Y-126000000D03*
D14*
X176160000Y-126000000D03*
%TD*%
D13*
%TO.C,C4*%
X166000000Y-147000000D03*
X168000000Y-147000000D03*
%TD*%
%TO.C,R3*%
X114000000Y-126000000D03*
D14*
X124160000Y-126000000D03*
%TD*%
D24*
%TO.C,J2*%
X177700000Y-88000000D03*
X177700000Y-104230000D03*
X165000000Y-88000000D03*
X165000000Y-104230000D03*
%TD*%
D13*
%TO.C,R18*%
X114000000Y-140000000D03*
D14*
X124160000Y-140000000D03*
%TD*%
D13*
%TO.C,R9*%
X101000000Y-133000000D03*
D14*
X111160000Y-133000000D03*
%TD*%
D25*
%TO.C,SW1*%
X126190000Y-174960000D03*
X132540000Y-172420000D03*
D26*
X135080000Y-177500000D03*
D27*
X130000000Y-177500000D03*
D26*
X124920000Y-177500000D03*
%TD*%
D13*
%TO.C,C8*%
X127000000Y-154000000D03*
X129000000Y-154000000D03*
%TD*%
%TO.C,R16*%
X88000000Y-168000000D03*
D14*
X100700000Y-168000000D03*
%TD*%
D13*
%TO.C,R6*%
X153000000Y-126000000D03*
D14*
X163160000Y-126000000D03*
%TD*%
D13*
%TO.C,C2*%
X140000000Y-147000000D03*
X142000000Y-147000000D03*
%TD*%
D28*
%TO.C,BT1*%
X88000000Y-161000000D03*
D29*
X88000000Y-163540000D03*
%TD*%
D12*
%TO.C,IC3*%
X152000000Y-90000000D03*
D14*
X152000000Y-92540000D03*
X152000000Y-95080000D03*
X152000000Y-97620000D03*
X152000000Y-100160000D03*
X152000000Y-102700000D03*
X152000000Y-105240000D03*
X159620000Y-105240000D03*
X159620000Y-102700000D03*
X159620000Y-100160000D03*
X159620000Y-97620000D03*
X159620000Y-95080000D03*
X159620000Y-92540000D03*
X159620000Y-90000000D03*
%TD*%
D24*
%TO.C,J1*%
X86150000Y-92130000D03*
D30*
X92500000Y-90000000D03*
X92500000Y-101430000D03*
D24*
X89350000Y-90000000D03*
X89350000Y-101430000D03*
X95700000Y-90000000D03*
X95700000Y-101430000D03*
X83000000Y-90000000D03*
X83000000Y-101430000D03*
%TD*%
%LPD*%
M02*
