M48
; DRILL file {KiCad 8.0.1} date 2026-07-01T23:19:03+0900
; FORMAT={-:-/ absolute / inch / decimal}
; #@! TF.CreationDate,2026-07-01T23:19:03+09:00
; #@! TF.GenerationSoftware,Kicad,Pcbnew,8.0.1
; #@! TF.FileFunction,Plated,1,2,PTH
FMAT,2
INCH
; #@! TA.AperFunction,Plated,PTH,ViaDrill
T1C0.0118
; #@! TA.AperFunction,Plated,PTH,ComponentDrill
T2C0.0295
; #@! TA.AperFunction,Plated,PTH,ComponentDrill
T3C0.0315
; #@! TA.AperFunction,Plated,PTH,ComponentDrill
T4C0.0354
; #@! TA.AperFunction,Plated,PTH,ComponentDrill
T5C0.0394
; #@! TA.AperFunction,Plated,PTH,ComponentDrill
T6C0.0512
; #@! TA.AperFunction,Plated,PTH,ComponentDrill
T7C0.0551
; #@! TA.AperFunction,Plated,PTH,ComponentDrill
T8C0.0591
; #@! TA.AperFunction,Plated,PTH,ComponentDrill
T9C0.0709
%
G90
G05
T1
X3.7402Y-5.1575
X3.7402Y-5.748
X3.8189Y-5.1969
X3.8976Y-6.1811
X3.937Y-5.6299
X3.937Y-5.7087
X3.9764Y-5.9449
X4.0157Y-5.4331
X4.0157Y-5.6299
X4.0551Y-5.6299
X4.1732Y-5.1181
X4.1732Y-5.748
X4.2913Y-5.4331
X4.3701Y-3.622
X4.4488Y-4.685
X4.4882Y-3.937
X4.4882Y-4.8425
X4.5276Y-4.8031
X4.5276Y-5.9449
X4.5669Y-3.8583
X4.5669Y-3.937
X4.5669Y-4.8031
X4.6063Y-5.9449
X4.6063Y-6.1811
X4.6457Y-4.0157
X4.6457Y-4.6457
X4.685Y-3.622
X4.685Y-4.0157
X4.685Y-5.1969
X4.685Y-5.9055
X4.685Y-6.1811
X4.7244Y-5.0787
X4.7244Y-5.1181
X4.7638Y-4.9606
X4.7638Y-5.1969
X4.7638Y-5.5118
X4.8031Y-5.2756
X4.8425Y-5.0787
X4.8425Y-5.1969
X4.8819Y-4.0945
X4.8819Y-4.685
X4.8819Y-5.8268
X4.8819Y-5.9055
X4.9213Y-3.5039
X4.9213Y-4.6063
X4.9213Y-4.685
X4.9213Y-6.1024
X4.9606Y-5.9055
X5.0Y-4.0551
X5.0394Y-4.3701
X5.0394Y-4.5276
X5.0394Y-4.5669
X5.0394Y-5.9055
X5.0394Y-5.9449
X5.0787Y-3.4252
X5.0787Y-4.6063
X5.0787Y-5.1181
X5.1181Y-5.1969
X5.1181Y-5.9055
X5.1181Y-5.9449
X5.1181Y-6.1811
X5.1181Y-6.2205
X5.1575Y-3.4252
X5.1575Y-3.5039
X5.1969Y-2.9921
X5.1969Y-6.2598
X5.2362Y-5.1969
X5.3937Y-5.0787
X5.5512Y-3.8976
X5.5512Y-5.0787
X5.5512Y-5.9449
X5.5906Y-3.8189
X5.5906Y-5.3937
X5.6693Y-5.1181
X5.6693Y-5.4724
X5.7087Y-5.3937
X5.748Y-5.4724
X5.9843Y-5.9055
X6.2205Y-5.8268
X6.2205Y-5.9055
X6.2598Y-4.8819
X6.2598Y-5.6299
X6.2992Y-5.0
X6.2992Y-5.9055
X6.3386Y-4.8031
X6.3386Y-4.9213
X6.5748Y-4.8819
X6.5748Y-5.6299
X6.5748Y-5.6693
X6.6535Y-5.0
T2
X3.9764Y-5.7874
X4.0264Y-5.7374
X4.0764Y-5.7874
X4.4882Y-5.7874
X4.5382Y-5.7374
X4.5882Y-5.7874
T3
X3.4646Y-4.9606
X3.4646Y-5.2362
X3.4646Y-5.5118
X3.4646Y-5.7874
X3.4646Y-6.063
X3.4646Y-6.6142
X3.5433Y-6.063
X3.8646Y-4.9606
X3.8646Y-5.2362
X3.8646Y-5.5118
X3.8646Y-5.7874
X3.937Y-3.5433
X3.937Y-3.6433
X3.937Y-3.7433
X3.937Y-3.8433
X3.9646Y-6.6142
X3.9764Y-4.9606
X3.9764Y-5.2362
X3.9764Y-5.5118
X3.9764Y-6.063
X4.0748Y-6.063
X4.237Y-3.5433
X4.237Y-3.6433
X4.237Y-3.7433
X4.237Y-3.8433
X4.3764Y-4.9606
X4.3764Y-5.2362
X4.3764Y-5.5118
X4.4882Y-4.9606
X4.4882Y-5.2362
X4.4882Y-5.5118
X4.4882Y-6.063
X4.5669Y-6.063
X4.8031Y-3.5433
X4.8031Y-3.6433
X4.8031Y-3.7433
X4.8031Y-3.8433
X4.8031Y-3.9433
X4.8031Y-4.0433
X4.8031Y-4.1433
X4.8031Y-4.2433
X4.8882Y-4.9606
X4.8882Y-5.2362
X4.8882Y-5.5118
X5.0Y-4.9606
X5.0Y-5.2362
X5.0Y-5.5118
X5.0Y-5.7874
X5.0Y-6.063
X5.0787Y-6.063
X5.0984Y-5.7874
X5.1031Y-3.5433
X5.1031Y-3.6433
X5.1031Y-3.7433
X5.1031Y-3.8433
X5.1031Y-3.9433
X5.1031Y-4.0433
X5.1031Y-4.1433
X5.1031Y-4.2433
X5.4Y-4.9606
X5.4Y-5.2362
X5.4Y-5.5118
X5.5118Y-4.9606
X5.5118Y-5.2362
X5.5118Y-5.5118
X5.5118Y-5.7874
X5.5118Y-6.063
X5.5906Y-5.7874
X5.5906Y-6.063
X5.9118Y-4.9606
X5.9118Y-5.2362
X5.9118Y-5.5118
X5.9843Y-3.5433
X5.9843Y-3.6433
X5.9843Y-3.7433
X5.9843Y-3.8433
X5.9843Y-3.9433
X5.9843Y-4.0433
X5.9843Y-4.1433
X6.0236Y-4.9606
X6.0236Y-5.2362
X6.0236Y-5.5118
X6.0236Y-5.7874
X6.0236Y-6.063
X6.1024Y-5.7874
X6.1024Y-6.063
X6.2843Y-3.5433
X6.2843Y-3.6433
X6.2843Y-3.7433
X6.2843Y-3.8433
X6.2843Y-3.9433
X6.2843Y-4.0433
X6.2843Y-4.1433
X6.4236Y-4.9606
X6.4236Y-5.2362
X6.4236Y-5.5118
X6.5354Y-4.9606
X6.5354Y-5.2362
X6.5354Y-5.5118
X6.5354Y-5.7874
X6.5354Y-6.063
X6.6142Y-5.7874
X6.6142Y-6.063
X6.9354Y-4.9606
X6.9354Y-5.2362
X6.9354Y-5.5118
T4
X5.1181Y-2.8346
X5.2181Y-2.8346
T5
X3.4646Y-6.3386
X3.4646Y-6.4386
X4.3307Y-2.8386
X4.3307Y-2.937
X4.3307Y-3.0354
X5.9055Y-2.8346
X5.9055Y-2.9331
X5.9055Y-3.0315
T6
X4.7244Y-4.4685
X4.7244Y-4.7638
X5.3252Y-4.4685
X5.3252Y-4.7638
X5.5236Y-4.4685
X5.5236Y-4.7638
X5.722Y-4.4685
X5.722Y-4.7638
T7
X6.4961Y-3.4646
X6.4961Y-4.1035
X6.9961Y-3.4646
X6.9961Y-4.1035
T8
X3.2677Y-3.5433
X3.2677Y-3.9933
X3.5177Y-3.5433
X3.5177Y-3.9933
X3.7677Y-3.5433
X3.7677Y-3.9933
X4.9681Y-6.8882
X5.2181Y-6.7882
T9
G00X4.6004Y-2.7638
M15
G01X4.6122Y-2.7638
M16
G05
G00X4.6004Y-3.1102
M15
G01X4.6122Y-3.1102
M16
G05
G00X6.1752Y-2.7598
M15
G01X6.187Y-2.7598
M16
G05
G00X6.1752Y-3.1063
M15
G01X6.187Y-3.1063
M16
G05
M30
