%TF.GenerationSoftware,KiCad,Pcbnew,8.0.1*%
%TF.CreationDate,2026-07-01T21:36:11+09:00*%
%TF.ProjectId,bass_compressor,62617373-5f63-46f6-9d70-726573736f72,rev?*%
%TF.SameCoordinates,Original*%
%TF.FileFunction,Copper,L2,Bot*%
%TF.FilePolarity,Positive*%
%FSLAX46Y46*%
G04 Gerber Fmt 4.6, Leading zero omitted, Abs format (unit mm)*
G04 Created by KiCad (PCBNEW 8.0.1) date 2026-07-01 21:36:11*
%MOMM*%
%LPD*%
G01*
G04 APERTURE LIST*
G04 Aperture macros list*
%AMRoundRect*
0 Rectangle with rounded corners*
0 $1 Rounding radius*
0 $2 $3 $4 $5 $6 $7 $8 $9 X,Y pos of 4 corners*
0 Add a 4 corners polygon primitive as box body*
4,1,4,$2,$3,$4,$5,$6,$7,$8,$9,$2,$3,0*
0 Add four circle primitives for the rounded corners*
1,1,$1+$1,$2,$3*
1,1,$1+$1,$4,$5*
1,1,$1+$1,$6,$7*
1,1,$1+$1,$8,$9*
0 Add four rect primitives between the rounded corners*
20,1,$1+$1,$2,$3,$4,$5,0*
20,1,$1+$1,$4,$5,$6,$7,0*
20,1,$1+$1,$6,$7,$8,$9,0*
20,1,$1+$1,$8,$9,$2,$3,0*%
G04 Aperture macros list end*
%TA.AperFunction,ComponentPad*%
%ADD10R,1.600000X1.600000*%
%TD*%
%TA.AperFunction,ComponentPad*%
%ADD11C,1.600000*%
%TD*%
%TA.AperFunction,ComponentPad*%
%ADD12O,1.600000X1.600000*%
%TD*%
%TA.AperFunction,ComponentPad*%
%ADD13R,1.300000X1.300000*%
%TD*%
%TA.AperFunction,ComponentPad*%
%ADD14C,1.300000*%
%TD*%
%TA.AperFunction,ComponentPad*%
%ADD15O,2.000000X3.000000*%
%TD*%
%TA.AperFunction,ComponentPad*%
%ADD16R,3.000000X2.000000*%
%TD*%
%TA.AperFunction,ComponentPad*%
%ADD17O,3.000000X2.000000*%
%TD*%
%TA.AperFunction,ComponentPad*%
%ADD18R,1.800000X1.800000*%
%TD*%
%TA.AperFunction,ComponentPad*%
%ADD19C,1.800000*%
%TD*%
%TA.AperFunction,ComponentPad*%
%ADD20RoundRect,0.750000X-1.250000X-0.750000X1.250000X-0.750000X1.250000X0.750000X-1.250000X0.750000X0*%
%TD*%
%TA.AperFunction,ComponentPad*%
%ADD21C,3.000000*%
%TD*%
%TA.AperFunction,ComponentPad*%
%ADD22C,2.200000*%
%TD*%
%TA.AperFunction,ComponentPad*%
%ADD23R,1.700000X1.700000*%
%TD*%
%TA.AperFunction,ComponentPad*%
%ADD24O,1.700000X1.700000*%
%TD*%
%TA.AperFunction,ViaPad*%
%ADD25C,0.600000*%
%TD*%
%TA.AperFunction,Conductor*%
%ADD26C,0.300000*%
%TD*%
G04 APERTURE END LIST*
D10*
%TO.P,C7,1*%
%TO.N,VREF*%
X114000000Y-154000000D03*
D11*
%TO.P,C7,2*%
%TO.N,GND*%
X116000000Y-154000000D03*
%TD*%
%TO.P,R17,1*%
%TO.N,FF_Q1*%
X101000000Y-140000000D03*
D12*
%TO.P,R17,2*%
%TO.N,RELAY_BASE*%
X111160000Y-140000000D03*
%TD*%
D11*
%TO.P,R12,1*%
%TO.N,ENV_B_PRE*%
X140000000Y-133000000D03*
D12*
%TO.P,R12,2*%
%TO.N,ENV_B*%
X150160000Y-133000000D03*
%TD*%
D11*
%TO.P,C10,1*%
%TO.N,ENV_B*%
X153000000Y-154000000D03*
%TO.P,C10,2*%
%TO.N,GND*%
X155000000Y-154000000D03*
%TD*%
D10*
%TO.P,U1,1*%
%TO.N,BUF_OUT*%
X100000000Y-90000000D03*
D12*
%TO.P,U1,2*%
X100000000Y-92540000D03*
%TO.P,U1,3*%
%TO.N,BUF_IN*%
X100000000Y-95080000D03*
%TO.P,U1,4*%
%TO.N,GND*%
X100000000Y-97620000D03*
%TO.P,U1,5*%
%TO.N,U1B_INP*%
X107620000Y-97620000D03*
%TO.P,U1,6*%
%TO.N,U1B_INN*%
X107620000Y-95080000D03*
%TO.P,U1,7*%
%TO.N,U1B_OUT*%
X107620000Y-92540000D03*
%TO.P,U1,8*%
%TO.N,VPLUS*%
X107620000Y-90000000D03*
%TD*%
D10*
%TO.P,D1,1*%
%TO.N,ENV_B_PRE*%
X166000000Y-140000000D03*
D12*
%TO.P,D1,2*%
%TO.N,ENV_A*%
X176160000Y-140000000D03*
%TD*%
D11*
%TO.P,R14,1*%
%TO.N,BUF_IN*%
X166000000Y-133000000D03*
D12*
%TO.P,R14,2*%
%TO.N,VREF*%
X176160000Y-133000000D03*
%TD*%
D11*
%TO.P,R10,1*%
%TO.N,SUST_WIPER*%
X114000000Y-133000000D03*
D12*
%TO.P,R10,2*%
%TO.N,QCTRL_BASE*%
X124160000Y-133000000D03*
%TD*%
D10*
%TO.P,D2,1*%
%TO.N,COIL_NEG*%
X88000000Y-147000000D03*
D12*
%TO.P,D2,2*%
%TO.N,COIL_POS*%
X98160000Y-147000000D03*
%TD*%
D11*
%TO.P,C3,1*%
%TO.N,OTA_OUT*%
X153000000Y-147000000D03*
%TO.P,C3,2*%
%TO.N,U1B_INP*%
X155000000Y-147000000D03*
%TD*%
D13*
%TO.P,Q2,1*%
%TO.N,RELAY_BASE*%
X114000000Y-147000000D03*
D14*
%TO.P,Q2,2*%
%TO.N,COIL_NEG*%
X115270000Y-145730000D03*
%TO.P,Q2,3*%
%TO.N,GND*%
X116540000Y-147000000D03*
%TD*%
D10*
%TO.P,IC1,1*%
%TO.N,OTA_IABC1*%
X122000000Y-90000000D03*
D12*
%TO.P,IC1,2*%
%TO.N,OTA_DBIAS1*%
X122000000Y-92540000D03*
%TO.P,IC1,3*%
%TO.N,OTA_INP*%
X122000000Y-95080000D03*
%TO.P,IC1,4*%
%TO.N,VREF*%
X122000000Y-97620000D03*
%TO.P,IC1,5*%
%TO.N,OTA_OUT*%
X122000000Y-100160000D03*
%TO.P,IC1,6*%
%TO.N,GND*%
X122000000Y-102700000D03*
%TO.P,IC1,7*%
X122000000Y-105240000D03*
%TO.P,IC1,8*%
%TO.N,N/C*%
X122000000Y-107780000D03*
%TO.P,IC1,9*%
X129620000Y-107780000D03*
%TO.P,IC1,10*%
%TO.N,GND*%
X129620000Y-105240000D03*
%TO.P,IC1,11*%
%TO.N,VPLUS*%
X129620000Y-102700000D03*
%TO.P,IC1,12*%
%TO.N,N/C*%
X129620000Y-100160000D03*
%TO.P,IC1,13*%
%TO.N,GND*%
X129620000Y-97620000D03*
%TO.P,IC1,14*%
X129620000Y-95080000D03*
%TO.P,IC1,15*%
X129620000Y-92540000D03*
%TO.P,IC1,16*%
X129620000Y-90000000D03*
%TD*%
D11*
%TO.P,R2,1*%
%TO.N,VREF*%
X101000000Y-126000000D03*
D12*
%TO.P,R2,2*%
%TO.N,GND*%
X111160000Y-126000000D03*
%TD*%
D11*
%TO.P,R5,1*%
%TO.N,U1B_INP*%
X140000000Y-126000000D03*
D12*
%TO.P,R5,2*%
%TO.N,VREF*%
X150160000Y-126000000D03*
%TD*%
D11*
%TO.P,R11,1*%
%TO.N,ENV_A*%
X127000000Y-133000000D03*
D12*
%TO.P,R11,2*%
%TO.N,GND*%
X137160000Y-133000000D03*
%TD*%
D11*
%TO.P,R15,1*%
%TO.N,VPLUS*%
X88000000Y-140000000D03*
D12*
%TO.P,R15,2*%
%TO.N,NODE_B*%
X98160000Y-140000000D03*
%TD*%
D15*
%TO.P,RL1,11*%
%TO.N,IN_SIGNAL*%
X140300000Y-121000000D03*
%TO.P,RL1,12*%
%TO.N,DRY*%
X135260000Y-121000000D03*
%TO.P,RL1,14*%
%TO.N,WET_IN*%
X145340000Y-121000000D03*
%TO.P,RL1,21*%
%TO.N,OUT_SIGNAL*%
X140300000Y-113500000D03*
%TO.P,RL1,22*%
%TO.N,DRY*%
X135260000Y-113500000D03*
%TO.P,RL1,24*%
%TO.N,WET_OUT*%
X145340000Y-113500000D03*
D16*
%TO.P,RL1,A1*%
%TO.N,COIL_POS*%
X120000000Y-121000000D03*
D17*
%TO.P,RL1,A2*%
%TO.N,COIL_NEG*%
X120000000Y-113500000D03*
%TD*%
D18*
%TO.P,VR2,1*%
%TO.N,LEVEL_IN*%
X150000000Y-72000000D03*
D19*
%TO.P,VR2,2*%
%TO.N,LEVEL_OUT*%
X150000000Y-74500000D03*
%TO.P,VR2,3*%
%TO.N,GND*%
X150000000Y-77000000D03*
D20*
%TO.P,VR2,MP*%
%TO.N,N/C*%
X157000000Y-70100000D03*
X157000000Y-78900000D03*
%TD*%
D11*
%TO.P,C5,1*%
%TO.N,LEVEL_OUT*%
X88000000Y-154000000D03*
%TO.P,C5,2*%
%TO.N,WET_OUT*%
X90000000Y-154000000D03*
%TD*%
%TO.P,C6,1*%
%TO.N,VPLUS*%
X101000000Y-154000000D03*
%TO.P,C6,2*%
%TO.N,GND*%
X103500000Y-154000000D03*
%TD*%
%TO.P,R21,1*%
%TO.N,ATTMID*%
X153000000Y-140000000D03*
D12*
%TO.P,R21,2*%
%TO.N,VREF*%
X163160000Y-140000000D03*
%TD*%
D10*
%TO.P,C1,1*%
%TO.N,VPLUS*%
X127000000Y-147000000D03*
D11*
%TO.P,C1,2*%
%TO.N,GND*%
X129500000Y-147000000D03*
%TD*%
%TO.P,C9,1*%
%TO.N,OTA_OUT*%
X140000000Y-154000000D03*
%TO.P,C9,2*%
%TO.N,ENV_A*%
X142000000Y-154000000D03*
%TD*%
%TO.P,R13,1*%
%TO.N,ENV_B*%
X153000000Y-133000000D03*
D12*
%TO.P,R13,2*%
%TO.N,GND*%
X163160000Y-133000000D03*
%TD*%
D18*
%TO.P,LED1,1*%
%TO.N,GND*%
X130000000Y-72000000D03*
D19*
%TO.P,LED1,2*%
%TO.N,LED_A*%
X132540000Y-72000000D03*
%TD*%
D11*
%TO.P,R19,1*%
%TO.N,VPLUS*%
X127000000Y-140000000D03*
D12*
%TO.P,R19,2*%
%TO.N,ENV_B*%
X137160000Y-140000000D03*
%TD*%
D11*
%TO.P,R20,1*%
%TO.N,BUF_OUT*%
X140000000Y-140000000D03*
D12*
%TO.P,R20,2*%
%TO.N,ATTMID*%
X150160000Y-140000000D03*
%TD*%
D11*
%TO.P,R8,1*%
%TO.N,VPLUS*%
X88000000Y-133000000D03*
D12*
%TO.P,R8,2*%
%TO.N,OTA_DBIAS1*%
X98160000Y-133000000D03*
%TD*%
D18*
%TO.P,VR1,1*%
%TO.N,ENV_B*%
X110000000Y-72100000D03*
D19*
%TO.P,VR1,2*%
%TO.N,SUST_WIPER*%
X110000000Y-74600000D03*
%TO.P,VR1,3*%
%TO.N,GND*%
X110000000Y-77100000D03*
D20*
%TO.P,VR1,MP*%
%TO.N,N/C*%
X117000000Y-70200000D03*
X117000000Y-79000000D03*
%TD*%
D11*
%TO.P,C11,1*%
%TO.N,NODE_B*%
X166000000Y-154000000D03*
%TO.P,C11,2*%
%TO.N,GND*%
X168000000Y-154000000D03*
%TD*%
%TO.P,R1,1*%
%TO.N,VPLUS*%
X88000000Y-126000000D03*
D12*
%TO.P,R1,2*%
%TO.N,VREF*%
X98160000Y-126000000D03*
%TD*%
D13*
%TO.P,Q1,1*%
%TO.N,QCTRL_BASE*%
X101000000Y-147000000D03*
D14*
%TO.P,Q1,2*%
%TO.N,OTA_IABC1*%
X102270000Y-145730000D03*
%TO.P,Q1,3*%
%TO.N,GND*%
X103540000Y-147000000D03*
%TD*%
D11*
%TO.P,R4,1*%
%TO.N,OTA_OUT*%
X127000000Y-126000000D03*
D12*
%TO.P,R4,2*%
%TO.N,VREF*%
X137160000Y-126000000D03*
%TD*%
D11*
%TO.P,R7,1*%
%TO.N,U1B_INN*%
X166000000Y-126000000D03*
D12*
%TO.P,R7,2*%
%TO.N,U1B_OUT*%
X176160000Y-126000000D03*
%TD*%
D11*
%TO.P,C4,1*%
%TO.N,U1B_OUT*%
X166000000Y-147000000D03*
%TO.P,C4,2*%
%TO.N,LEVEL_IN*%
X168000000Y-147000000D03*
%TD*%
%TO.P,R3,1*%
%TO.N,OTA_INP*%
X114000000Y-126000000D03*
D12*
%TO.P,R3,2*%
%TO.N,VREF*%
X124160000Y-126000000D03*
%TD*%
D21*
%TO.P,J2,S*%
%TO.N,GND*%
X177700000Y-88000000D03*
%TO.P,J2,SN*%
%TO.N,N/C*%
X177700000Y-104230000D03*
%TO.P,J2,T*%
%TO.N,OUT_SIGNAL*%
X165000000Y-88000000D03*
%TO.P,J2,TN*%
%TO.N,N/C*%
X165000000Y-104230000D03*
%TD*%
D11*
%TO.P,R18,1*%
%TO.N,FF_Q1*%
X114000000Y-140000000D03*
D12*
%TO.P,R18,2*%
%TO.N,LED_A*%
X124160000Y-140000000D03*
%TD*%
D11*
%TO.P,R9,1*%
%TO.N,VPLUS*%
X101000000Y-133000000D03*
D12*
%TO.P,R9,2*%
%TO.N,OTA_IABC1*%
X111160000Y-133000000D03*
%TD*%
D22*
%TO.P,SW1,1*%
%TO.N,GND*%
X132540000Y-172420000D03*
%TO.P,SW1,2*%
%TO.N,NODE_B*%
X126190000Y-174960000D03*
%TD*%
D11*
%TO.P,C8,1*%
%TO.N,WET_IN*%
X127000000Y-154000000D03*
%TO.P,C8,2*%
%TO.N,BUF_IN*%
X129000000Y-154000000D03*
%TD*%
%TO.P,R16,1*%
%TO.N,VPLUS*%
X88000000Y-168000000D03*
D12*
%TO.P,R16,2*%
%TO.N,COIL_POS*%
X100700000Y-168000000D03*
%TD*%
D11*
%TO.P,R6,1*%
%TO.N,U1B_INN*%
X153000000Y-126000000D03*
D12*
%TO.P,R6,2*%
%TO.N,GND*%
X163160000Y-126000000D03*
%TD*%
D11*
%TO.P,C2,1*%
%TO.N,ATTMID*%
X140000000Y-147000000D03*
%TO.P,C2,2*%
%TO.N,OTA_INP*%
X142000000Y-147000000D03*
%TD*%
D23*
%TO.P,BT1,1*%
%TO.N,VPLUS*%
X88000000Y-161000000D03*
D24*
%TO.P,BT1,2*%
%TO.N,BATT_RTN*%
X88000000Y-163540000D03*
%TD*%
D10*
%TO.P,IC3,1*%
%TO.N,FF_Q1*%
X152000000Y-90000000D03*
D12*
%TO.P,IC3,2*%
%TO.N,FF_D_FB*%
X152000000Y-92540000D03*
%TO.P,IC3,3*%
%TO.N,NODE_B*%
X152000000Y-95080000D03*
%TO.P,IC3,4*%
%TO.N,GND*%
X152000000Y-97620000D03*
%TO.P,IC3,5*%
%TO.N,FF_D_FB*%
X152000000Y-100160000D03*
%TO.P,IC3,6*%
%TO.N,GND*%
X152000000Y-102700000D03*
%TO.P,IC3,7*%
X152000000Y-105240000D03*
%TO.P,IC3,8*%
X159620000Y-105240000D03*
%TO.P,IC3,9*%
X159620000Y-102700000D03*
%TO.P,IC3,10*%
X159620000Y-100160000D03*
%TO.P,IC3,11*%
X159620000Y-97620000D03*
%TO.P,IC3,12*%
%TO.N,N/C*%
X159620000Y-95080000D03*
%TO.P,IC3,13*%
X159620000Y-92540000D03*
%TO.P,IC3,14*%
%TO.N,VPLUS*%
X159620000Y-90000000D03*
%TD*%
D21*
%TO.P,J1,R*%
%TO.N,BATT_RTN*%
X89350000Y-90000000D03*
%TO.P,J1,RN*%
%TO.N,N/C*%
X89350000Y-101430000D03*
%TO.P,J1,S*%
%TO.N,GND*%
X95700000Y-90000000D03*
%TO.P,J1,SN*%
%TO.N,N/C*%
X95700000Y-101430000D03*
%TO.P,J1,T*%
%TO.N,IN_SIGNAL*%
X83000000Y-90000000D03*
%TO.P,J1,TN*%
%TO.N,N/C*%
X83000000Y-101430000D03*
%TD*%
D25*
%TO.N,ATTMID*%
X142000000Y-137000000D03*
X145000000Y-137000000D03*
%TO.N,BUF_IN*%
X125000000Y-155000000D03*
X130000000Y-157000000D03*
%TO.N,BUF_OUT*%
X128000000Y-116000000D03*
X118000000Y-102000000D03*
%TO.N,COIL_NEG*%
X95000000Y-146000000D03*
X125000000Y-117000000D03*
X125000000Y-119000000D03*
X100000000Y-145000000D03*
%TO.N,ENV_A*%
X130000000Y-132000000D03*
X133000000Y-132000000D03*
X144000000Y-130000000D03*
X144000000Y-139000000D03*
%TO.N,ENV_B*%
X159000000Y-143000000D03*
X141000000Y-151000000D03*
X167000000Y-143000000D03*
X169000000Y-127000000D03*
%TO.N,FF_Q1*%
X124000000Y-119000000D03*
X141000000Y-99000000D03*
%TO.N,IN_SIGNAL*%
X118000000Y-118000000D03*
%TO.N,LED_A*%
X132000000Y-76000000D03*
X129000000Y-130000000D03*
X129000000Y-117000000D03*
%TO.N,LEVEL_OUT*%
X113000000Y-119000000D03*
%TO.N,NODE_B*%
X161000000Y-125000000D03*
X130000000Y-158000000D03*
X103000000Y-143000000D03*
X160000000Y-150000000D03*
X115000000Y-151000000D03*
X160000000Y-127000000D03*
X161000000Y-122000000D03*
X117000000Y-151000000D03*
%TO.N,OTA_IABC1*%
X125000000Y-89000000D03*
X100000000Y-143000000D03*
X102000000Y-143000000D03*
X97000000Y-132000000D03*
X111000000Y-92000000D03*
%TO.N,OTA_INP*%
X114000000Y-100000000D03*
X128000000Y-150000000D03*
X126000000Y-150000000D03*
X120000000Y-130000000D03*
X130000000Y-150000000D03*
X114000000Y-123000000D03*
%TO.N,OTA_OUT*%
X124000000Y-150000000D03*
X130000000Y-151000000D03*
X116000000Y-122000000D03*
X122000000Y-134000000D03*
X116000000Y-100000000D03*
X121000000Y-126000000D03*
X124000000Y-148000000D03*
X128000000Y-151000000D03*
%TO.N,U1B_INN*%
X128000000Y-111000000D03*
X124000000Y-104000000D03*
X159000000Y-124000000D03*
%TO.N,U1B_INP*%
X119000000Y-102000000D03*
X128000000Y-115000000D03*
%TO.N,U1B_OUT*%
X119000000Y-92000000D03*
X142000000Y-97000000D03*
X131000000Y-89000000D03*
X167000000Y-124000000D03*
%TO.N,VPLUS*%
X95000000Y-131000000D03*
X131000000Y-87000000D03*
X109000000Y-138000000D03*
X101000000Y-151000000D03*
X102000000Y-138000000D03*
X106000000Y-146000000D03*
X127000000Y-103000000D03*
X99000000Y-157000000D03*
X129000000Y-87000000D03*
X106000000Y-130000000D03*
X121000000Y-140000000D03*
%TO.N,VREF*%
X158000000Y-150000000D03*
X119000000Y-150000000D03*
X141000000Y-129000000D03*
X119000000Y-157000000D03*
X158000000Y-148000000D03*
X167000000Y-144000000D03*
X115000000Y-122000000D03*
X119000000Y-132000000D03*
X123000000Y-129000000D03*
X123000000Y-132000000D03*
X117000000Y-157000000D03*
X146000000Y-139000000D03*
X152000000Y-150000000D03*
X137000000Y-129000000D03*
X120000000Y-129000000D03*
X132000000Y-159000000D03*
X116000000Y-98000000D03*
X121000000Y-132000000D03*
%TD*%
D26*
%TO.N,ATTMID*%
X145000000Y-137000000D02*
X142000000Y-137000000D01*
%TO.N,BATT_RTN*%
X89000000Y-94000000D02*
X89000000Y-90000000D01*
X88000000Y-94000000D02*
X89000000Y-94000000D01*
X86000000Y-95000000D02*
X88000000Y-95000000D01*
X88000000Y-95000000D02*
X88000000Y-94000000D01*
X88000000Y-163000000D02*
X86000000Y-163000000D01*
X88000000Y-164000000D02*
X88000000Y-163000000D01*
X86000000Y-163000000D02*
X86000000Y-95000000D01*
%TO.N,BUF_IN*%
X96000000Y-125000000D02*
X96000000Y-152000000D01*
X97000000Y-125000000D02*
X96000000Y-125000000D01*
X132000000Y-151000000D02*
X133000000Y-151000000D01*
X118000000Y-152000000D02*
X118000000Y-154000000D01*
X165000000Y-133000000D02*
X166000000Y-133000000D01*
X97000000Y-124000000D02*
X97000000Y-125000000D01*
X132000000Y-157000000D02*
X132000000Y-151000000D01*
X130000000Y-157000000D02*
X132000000Y-157000000D01*
X133000000Y-133000000D02*
X135000000Y-133000000D01*
X135000000Y-132000000D02*
X136000000Y-132000000D01*
X99000000Y-100000000D02*
X99000000Y-124000000D01*
X96000000Y-152000000D02*
X118000000Y-152000000D01*
X100000000Y-96000000D02*
X98000000Y-96000000D01*
X99000000Y-124000000D02*
X97000000Y-124000000D01*
X133000000Y-151000000D02*
X133000000Y-133000000D01*
X98000000Y-96000000D02*
X98000000Y-100000000D01*
X100000000Y-95000000D02*
X100000000Y-96000000D01*
X136000000Y-132000000D02*
X136000000Y-131000000D01*
X118000000Y-154000000D02*
X125000000Y-154000000D01*
X136000000Y-131000000D02*
X165000000Y-131000000D01*
X165000000Y-131000000D02*
X165000000Y-133000000D01*
X125000000Y-154000000D02*
X125000000Y-155000000D01*
X98000000Y-100000000D02*
X99000000Y-100000000D01*
X135000000Y-133000000D02*
X135000000Y-132000000D01*
%TO.N,BUF_OUT*%
X118000000Y-111000000D02*
X122000000Y-111000000D01*
X123000000Y-112000000D02*
X123000000Y-116000000D01*
X118000000Y-102000000D02*
X118000000Y-111000000D01*
X122000000Y-112000000D02*
X123000000Y-112000000D01*
X122000000Y-111000000D02*
X122000000Y-112000000D01*
X123000000Y-116000000D02*
X128000000Y-116000000D01*
%TO.N,COIL_NEG*%
X115000000Y-145000000D02*
X115000000Y-142000000D01*
X119000000Y-125000000D02*
X123000000Y-125000000D01*
X88000000Y-147000000D02*
X88000000Y-146000000D01*
X125000000Y-117000000D02*
X120000000Y-117000000D01*
X124000000Y-124000000D02*
X124000000Y-120000000D01*
X104000000Y-144000000D02*
X104000000Y-145000000D01*
X116000000Y-142000000D02*
X116000000Y-137000000D01*
X115000000Y-145000000D02*
X115000000Y-146000000D01*
X116000000Y-137000000D02*
X118000000Y-137000000D01*
X123000000Y-125000000D02*
X123000000Y-124000000D01*
X101000000Y-145000000D02*
X101000000Y-144000000D01*
X100000000Y-145000000D02*
X101000000Y-145000000D01*
X118000000Y-137000000D02*
X118000000Y-131000000D01*
X118000000Y-131000000D02*
X119000000Y-131000000D01*
X124000000Y-120000000D02*
X125000000Y-120000000D01*
X119000000Y-131000000D02*
X119000000Y-125000000D01*
X104000000Y-145000000D02*
X115000000Y-145000000D01*
X125000000Y-120000000D02*
X125000000Y-119000000D01*
X101000000Y-144000000D02*
X104000000Y-144000000D01*
X123000000Y-124000000D02*
X124000000Y-124000000D01*
X115000000Y-142000000D02*
X116000000Y-142000000D01*
X120000000Y-117000000D02*
X120000000Y-114000000D01*
X88000000Y-146000000D02*
X95000000Y-146000000D01*
%TO.N,ENV_A*%
X170000000Y-149000000D02*
X142000000Y-149000000D01*
X130000000Y-132000000D02*
X130000000Y-129000000D01*
X130000000Y-129000000D02*
X127000000Y-129000000D01*
X142000000Y-149000000D02*
X142000000Y-154000000D01*
X170000000Y-140000000D02*
X170000000Y-149000000D01*
X144000000Y-149000000D02*
X144000000Y-139000000D01*
X144000000Y-130000000D02*
X133000000Y-130000000D01*
X176000000Y-140000000D02*
X170000000Y-140000000D01*
X127000000Y-129000000D02*
X127000000Y-133000000D01*
X133000000Y-130000000D02*
X133000000Y-132000000D01*
%TO.N,ENV_B*%
X152000000Y-70000000D02*
X121000000Y-70000000D01*
X121000000Y-70000000D02*
X121000000Y-69000000D01*
X152000000Y-72000000D02*
X152000000Y-70000000D01*
X168000000Y-84000000D02*
X153000000Y-84000000D01*
X121000000Y-69000000D02*
X120000000Y-69000000D01*
X137000000Y-151000000D02*
X137000000Y-140000000D01*
X110000000Y-67000000D02*
X110000000Y-72000000D01*
X169000000Y-85000000D02*
X168000000Y-85000000D01*
X153000000Y-84000000D02*
X153000000Y-72000000D01*
X159000000Y-143000000D02*
X167000000Y-143000000D01*
X141000000Y-151000000D02*
X137000000Y-151000000D01*
X120000000Y-69000000D02*
X120000000Y-67000000D01*
X120000000Y-67000000D02*
X110000000Y-67000000D01*
X153000000Y-72000000D02*
X152000000Y-72000000D01*
X168000000Y-85000000D02*
X168000000Y-84000000D01*
X169000000Y-127000000D02*
X169000000Y-85000000D01*
%TO.N,ENV_B_PRE*%
X165000000Y-140000000D02*
X166000000Y-140000000D01*
X165000000Y-138000000D02*
X165000000Y-140000000D01*
X140000000Y-133000000D02*
X140000000Y-138000000D01*
X140000000Y-138000000D02*
X165000000Y-138000000D01*
%TO.N,FF_Q1*%
X109000000Y-140000000D02*
X109000000Y-139000000D01*
X122000000Y-123000000D02*
X123000000Y-123000000D01*
X113000000Y-138000000D02*
X113000000Y-136000000D01*
X118000000Y-124000000D02*
X122000000Y-124000000D01*
X141000000Y-90000000D02*
X152000000Y-90000000D01*
X123000000Y-123000000D02*
X123000000Y-119000000D01*
X122000000Y-124000000D02*
X122000000Y-123000000D01*
X113000000Y-136000000D02*
X117000000Y-136000000D01*
X117000000Y-130000000D02*
X118000000Y-130000000D01*
X110000000Y-139000000D02*
X110000000Y-138000000D01*
X113000000Y-138000000D02*
X113000000Y-140000000D01*
X109000000Y-139000000D02*
X110000000Y-139000000D01*
X101000000Y-140000000D02*
X109000000Y-140000000D01*
X110000000Y-138000000D02*
X113000000Y-138000000D01*
X113000000Y-140000000D02*
X114000000Y-140000000D01*
X123000000Y-119000000D02*
X124000000Y-119000000D01*
X141000000Y-99000000D02*
X141000000Y-90000000D01*
X118000000Y-130000000D02*
X118000000Y-124000000D01*
X117000000Y-136000000D02*
X117000000Y-130000000D01*
%TO.N,IN_SIGNAL*%
X138000000Y-119000000D02*
X137000000Y-119000000D01*
X140000000Y-121000000D02*
X138000000Y-121000000D01*
X138000000Y-121000000D02*
X138000000Y-119000000D01*
X137000000Y-119000000D02*
X137000000Y-118000000D01*
X137000000Y-118000000D02*
X118000000Y-118000000D01*
%TO.N,LED_A*%
X132000000Y-76000000D02*
X132000000Y-109000000D01*
X129000000Y-130000000D02*
X129000000Y-135000000D01*
X132000000Y-109000000D02*
X131000000Y-109000000D01*
X129000000Y-135000000D02*
X124000000Y-135000000D01*
X131000000Y-110000000D02*
X129000000Y-110000000D01*
X124000000Y-135000000D02*
X124000000Y-140000000D01*
X131000000Y-109000000D02*
X131000000Y-110000000D01*
X129000000Y-110000000D02*
X129000000Y-117000000D01*
%TO.N,LEVEL_IN*%
X150000000Y-72000000D02*
X151000000Y-72000000D01*
X152000000Y-85000000D02*
X167000000Y-85000000D01*
X168000000Y-86000000D02*
X168000000Y-147000000D01*
X167000000Y-86000000D02*
X168000000Y-86000000D01*
X152000000Y-73000000D02*
X152000000Y-85000000D01*
X151000000Y-72000000D02*
X151000000Y-73000000D01*
X167000000Y-85000000D02*
X167000000Y-86000000D01*
X151000000Y-73000000D02*
X152000000Y-73000000D01*
%TO.N,LEVEL_OUT*%
X113000000Y-74000000D02*
X113000000Y-119000000D01*
X150000000Y-74000000D02*
X113000000Y-74000000D01*
%TO.N,NODE_B*%
X103000000Y-142000000D02*
X103000000Y-143000000D01*
X98000000Y-142000000D02*
X103000000Y-142000000D01*
X154000000Y-122000000D02*
X154000000Y-96000000D01*
X161000000Y-122000000D02*
X154000000Y-122000000D01*
X133000000Y-158000000D02*
X133000000Y-156000000D01*
X115000000Y-151000000D02*
X117000000Y-151000000D01*
X160000000Y-127000000D02*
X160000000Y-125000000D01*
X98000000Y-140000000D02*
X98000000Y-142000000D01*
X133000000Y-156000000D02*
X157000000Y-156000000D01*
X157000000Y-154000000D02*
X166000000Y-154000000D01*
X154000000Y-96000000D02*
X152000000Y-96000000D01*
X130000000Y-158000000D02*
X133000000Y-158000000D01*
X160000000Y-154000000D02*
X160000000Y-150000000D01*
X152000000Y-96000000D02*
X152000000Y-95000000D01*
X157000000Y-156000000D02*
X157000000Y-154000000D01*
X160000000Y-125000000D02*
X161000000Y-125000000D01*
%TO.N,OTA_DBIAS1*%
X116000000Y-135000000D02*
X98000000Y-135000000D01*
X98000000Y-135000000D02*
X98000000Y-133000000D01*
X117000000Y-129000000D02*
X116000000Y-129000000D01*
X122000000Y-93000000D02*
X117000000Y-93000000D01*
X116000000Y-129000000D02*
X116000000Y-135000000D01*
X117000000Y-93000000D02*
X117000000Y-129000000D01*
%TO.N,OTA_IABC1*%
X109000000Y-131000000D02*
X97000000Y-131000000D01*
X122000000Y-89000000D02*
X125000000Y-89000000D01*
X111000000Y-92000000D02*
X111000000Y-124000000D01*
X110000000Y-124000000D02*
X110000000Y-125000000D01*
X109000000Y-125000000D02*
X109000000Y-133000000D01*
X122000000Y-90000000D02*
X122000000Y-89000000D01*
X110000000Y-125000000D02*
X109000000Y-125000000D01*
X97000000Y-131000000D02*
X97000000Y-132000000D01*
X100000000Y-143000000D02*
X102000000Y-143000000D01*
X111000000Y-124000000D02*
X110000000Y-124000000D01*
X109000000Y-133000000D02*
X111000000Y-133000000D01*
%TO.N,OTA_INP*%
X125000000Y-147000000D02*
X125000000Y-149000000D01*
X125000000Y-149000000D02*
X126000000Y-149000000D01*
X126000000Y-149000000D02*
X126000000Y-150000000D01*
X120000000Y-147000000D02*
X125000000Y-147000000D01*
X120000000Y-130000000D02*
X120000000Y-147000000D01*
X114000000Y-100000000D02*
X114000000Y-123000000D01*
X128000000Y-150000000D02*
X130000000Y-150000000D01*
%TO.N,OTA_OUT*%
X122000000Y-128000000D02*
X126000000Y-128000000D01*
X124000000Y-150000000D02*
X124000000Y-148000000D01*
X130000000Y-151000000D02*
X128000000Y-151000000D01*
X126000000Y-128000000D02*
X126000000Y-126000000D01*
X122000000Y-128000000D02*
X122000000Y-126000000D01*
X122000000Y-134000000D02*
X122000000Y-128000000D01*
X116000000Y-122000000D02*
X116000000Y-100000000D01*
X126000000Y-126000000D02*
X127000000Y-126000000D01*
X122000000Y-126000000D02*
X121000000Y-126000000D01*
%TO.N,OUT_SIGNAL*%
X140000000Y-114000000D02*
X140000000Y-88000000D01*
X140000000Y-88000000D02*
X165000000Y-88000000D01*
%TO.N,SUST_WIPER*%
X114000000Y-133000000D02*
X114000000Y-128000000D01*
X112000000Y-75000000D02*
X110000000Y-75000000D01*
X116000000Y-128000000D02*
X116000000Y-124000000D01*
X114000000Y-128000000D02*
X116000000Y-128000000D01*
X112000000Y-124000000D02*
X112000000Y-75000000D01*
X116000000Y-124000000D02*
X112000000Y-124000000D01*
%TO.N,U1B_INN*%
X125000000Y-111000000D02*
X128000000Y-111000000D01*
X165000000Y-126000000D02*
X166000000Y-126000000D01*
X159000000Y-124000000D02*
X165000000Y-124000000D01*
X124000000Y-110000000D02*
X125000000Y-110000000D01*
X124000000Y-104000000D02*
X124000000Y-110000000D01*
X125000000Y-110000000D02*
X125000000Y-111000000D01*
X165000000Y-124000000D02*
X165000000Y-126000000D01*
%TO.N,U1B_INP*%
X123000000Y-111000000D02*
X124000000Y-111000000D01*
X119000000Y-110000000D02*
X123000000Y-110000000D01*
X124000000Y-111000000D02*
X124000000Y-115000000D01*
X123000000Y-110000000D02*
X123000000Y-111000000D01*
X124000000Y-115000000D02*
X128000000Y-115000000D01*
X119000000Y-102000000D02*
X119000000Y-110000000D01*
%TO.N,U1B_OUT*%
X120000000Y-92000000D02*
X120000000Y-88000000D01*
X148000000Y-118000000D02*
X149000000Y-118000000D01*
X149000000Y-118000000D02*
X149000000Y-123000000D01*
X166000000Y-124000000D02*
X167000000Y-124000000D01*
X142000000Y-97000000D02*
X142000000Y-111000000D01*
X119000000Y-92000000D02*
X120000000Y-92000000D01*
X120000000Y-88000000D02*
X131000000Y-88000000D01*
X131000000Y-88000000D02*
X131000000Y-89000000D01*
X142000000Y-111000000D02*
X148000000Y-111000000D01*
X166000000Y-123000000D02*
X166000000Y-124000000D01*
X149000000Y-123000000D02*
X166000000Y-123000000D01*
X148000000Y-111000000D02*
X148000000Y-118000000D01*
%TO.N,VPLUS*%
X108000000Y-91000000D02*
X106000000Y-91000000D01*
X88000000Y-133000000D02*
X88000000Y-140000000D01*
X123000000Y-141000000D02*
X123000000Y-142000000D01*
X105000000Y-149000000D02*
X101000000Y-149000000D01*
X88000000Y-161000000D02*
X89000000Y-161000000D01*
X88000000Y-131000000D02*
X88000000Y-133000000D01*
X129000000Y-87000000D02*
X131000000Y-87000000D01*
X90000000Y-162000000D02*
X90000000Y-165000000D01*
X88000000Y-166000000D02*
X88000000Y-168000000D01*
X121000000Y-140000000D02*
X122000000Y-140000000D01*
X95000000Y-131000000D02*
X88000000Y-131000000D01*
X90000000Y-165000000D02*
X89000000Y-165000000D01*
X99000000Y-157000000D02*
X88000000Y-157000000D01*
X89000000Y-162000000D02*
X90000000Y-162000000D01*
X108000000Y-90000000D02*
X108000000Y-91000000D01*
X122000000Y-140000000D02*
X122000000Y-141000000D01*
X126000000Y-142000000D02*
X126000000Y-147000000D01*
X106000000Y-91000000D02*
X106000000Y-130000000D01*
X127000000Y-103000000D02*
X130000000Y-103000000D01*
X88000000Y-131000000D02*
X88000000Y-126000000D01*
X89000000Y-161000000D02*
X89000000Y-162000000D01*
X126000000Y-142000000D02*
X126000000Y-140000000D01*
X101000000Y-149000000D02*
X101000000Y-151000000D01*
X122000000Y-141000000D02*
X123000000Y-141000000D01*
X126000000Y-147000000D02*
X127000000Y-147000000D01*
X123000000Y-142000000D02*
X126000000Y-142000000D01*
X105000000Y-146000000D02*
X105000000Y-149000000D01*
X88000000Y-157000000D02*
X88000000Y-161000000D01*
X89000000Y-166000000D02*
X88000000Y-166000000D01*
X106000000Y-146000000D02*
X105000000Y-146000000D01*
X89000000Y-165000000D02*
X89000000Y-166000000D01*
X102000000Y-138000000D02*
X109000000Y-138000000D01*
X126000000Y-140000000D02*
X127000000Y-140000000D01*
%TO.N,VREF*%
X157000000Y-144000000D02*
X167000000Y-144000000D01*
X123000000Y-132000000D02*
X123000000Y-129000000D01*
X158000000Y-148000000D02*
X157000000Y-148000000D01*
X121000000Y-132000000D02*
X121000000Y-129000000D01*
X115000000Y-122000000D02*
X115000000Y-98000000D01*
X121000000Y-129000000D02*
X120000000Y-129000000D01*
X157000000Y-145000000D02*
X157000000Y-140000000D01*
X157000000Y-145000000D02*
X146000000Y-145000000D01*
X157000000Y-140000000D02*
X163000000Y-140000000D01*
X129000000Y-157000000D02*
X129000000Y-159000000D01*
X152000000Y-150000000D02*
X158000000Y-150000000D01*
X157000000Y-148000000D02*
X157000000Y-145000000D01*
X146000000Y-145000000D02*
X146000000Y-139000000D01*
X119000000Y-150000000D02*
X119000000Y-132000000D01*
X119000000Y-157000000D02*
X129000000Y-157000000D01*
X141000000Y-129000000D02*
X137000000Y-129000000D01*
X117000000Y-157000000D02*
X119000000Y-157000000D01*
X115000000Y-98000000D02*
X116000000Y-98000000D01*
X129000000Y-159000000D02*
X132000000Y-159000000D01*
%TO.N,WET_IN*%
X142000000Y-123000000D02*
X142000000Y-124000000D01*
X127000000Y-149000000D02*
X127000000Y-154000000D01*
X131000000Y-149000000D02*
X127000000Y-149000000D01*
X145000000Y-121000000D02*
X143000000Y-121000000D01*
X142000000Y-124000000D02*
X131000000Y-124000000D01*
X131000000Y-124000000D02*
X131000000Y-149000000D01*
X143000000Y-121000000D02*
X143000000Y-123000000D01*
X143000000Y-123000000D02*
X142000000Y-123000000D01*
%TO.N,WET_OUT*%
X145000000Y-114000000D02*
X145000000Y-118000000D01*
X142000000Y-125000000D02*
X142000000Y-128000000D01*
X148000000Y-119000000D02*
X148000000Y-123000000D01*
X131000000Y-156000000D02*
X90000000Y-156000000D01*
X131000000Y-150000000D02*
X131000000Y-156000000D01*
X90000000Y-156000000D02*
X90000000Y-154000000D01*
X148000000Y-123000000D02*
X147000000Y-123000000D01*
X147000000Y-124000000D02*
X143000000Y-124000000D01*
X143000000Y-124000000D02*
X143000000Y-125000000D01*
X147000000Y-118000000D02*
X147000000Y-119000000D01*
X147000000Y-119000000D02*
X148000000Y-119000000D01*
X147000000Y-123000000D02*
X147000000Y-124000000D01*
X143000000Y-125000000D02*
X142000000Y-125000000D01*
X132000000Y-150000000D02*
X131000000Y-150000000D01*
X145000000Y-118000000D02*
X147000000Y-118000000D01*
X132000000Y-128000000D02*
X132000000Y-150000000D01*
X142000000Y-128000000D02*
X132000000Y-128000000D01*
%TD*%
M02*
