M48
; DRILL file {KiCad 8.0.1} date 2026-07-01T21:36:18+0900
; FORMAT={-:-/ absolute / metric / decimal}
; #@! TF.CreationDate,2026-07-01T21:36:18+09:00
; #@! TF.GenerationSoftware,Kicad,Pcbnew,8.0.1
; #@! TF.FileFunction,Plated,1,2,PTH
FMAT,2
METRIC
; #@! TA.AperFunction,Plated,PTH,ViaDrill
T1C0.300
; #@! TA.AperFunction,Plated,PTH,ComponentDrill
T2C0.750
; #@! TA.AperFunction,Plated,PTH,ComponentDrill
T3C0.800
; #@! TA.AperFunction,Plated,PTH,ComponentDrill
T4C0.900
; #@! TA.AperFunction,Plated,PTH,ComponentDrill
T5C1.000
; #@! TA.AperFunction,Plated,PTH,ComponentDrill
T6C1.300
; #@! TA.AperFunction,Plated,PTH,ComponentDrill
T7C1.400
; #@! TA.AperFunction,Plated,PTH,ComponentDrill
T8C1.500
; #@! TA.AperFunction,Plated,PTH,ComponentDrill
T9C1.800
%
G90
G05
T1
X95.0Y-131.0
X95.0Y-146.0
X97.0Y-132.0
X99.0Y-157.0
X100.0Y-143.0
X100.0Y-145.0
X101.0Y-151.0
X102.0Y-138.0
X102.0Y-143.0
X103.0Y-143.0
X106.0Y-130.0
X106.0Y-146.0
X109.0Y-138.0
X111.0Y-92.0
X113.0Y-119.0
X114.0Y-100.0
X114.0Y-123.0
X115.0Y-122.0
X115.0Y-151.0
X116.0Y-98.0
X116.0Y-100.0
X116.0Y-122.0
X117.0Y-151.0
X117.0Y-157.0
X118.0Y-102.0
X118.0Y-118.0
X119.0Y-92.0
X119.0Y-102.0
X119.0Y-132.0
X119.0Y-150.0
X119.0Y-157.0
X120.0Y-129.0
X120.0Y-130.0
X121.0Y-126.0
X121.0Y-132.0
X121.0Y-140.0
X122.0Y-134.0
X123.0Y-129.0
X123.0Y-132.0
X124.0Y-104.0
X124.0Y-119.0
X124.0Y-148.0
X124.0Y-150.0
X125.0Y-89.0
X125.0Y-117.0
X125.0Y-119.0
X125.0Y-155.0
X126.0Y-150.0
X127.0Y-103.0
X128.0Y-111.0
X128.0Y-115.0
X128.0Y-116.0
X128.0Y-150.0
X128.0Y-151.0
X129.0Y-87.0
X129.0Y-117.0
X129.0Y-130.0
X130.0Y-132.0
X130.0Y-150.0
X130.0Y-151.0
X130.0Y-157.0
X130.0Y-158.0
X131.0Y-87.0
X131.0Y-89.0
X132.0Y-76.0
X132.0Y-159.0
X133.0Y-132.0
X137.0Y-129.0
X141.0Y-99.0
X141.0Y-129.0
X141.0Y-151.0
X142.0Y-97.0
X142.0Y-137.0
X144.0Y-130.0
X144.0Y-139.0
X145.0Y-137.0
X146.0Y-139.0
X152.0Y-150.0
X158.0Y-148.0
X158.0Y-150.0
X159.0Y-124.0
X159.0Y-143.0
X160.0Y-127.0
X160.0Y-150.0
X161.0Y-122.0
X161.0Y-125.0
X167.0Y-124.0
X167.0Y-143.0
X167.0Y-144.0
X169.0Y-127.0
T2
X101.0Y-147.0
X102.27Y-145.73
X103.54Y-147.0
X114.0Y-147.0
X115.27Y-145.73
X116.54Y-147.0
T3
X88.0Y-126.0
X88.0Y-133.0
X88.0Y-140.0
X88.0Y-147.0
X88.0Y-154.0
X88.0Y-168.0
X90.0Y-154.0
X98.16Y-126.0
X98.16Y-133.0
X98.16Y-140.0
X98.16Y-147.0
X100.0Y-90.0
X100.0Y-92.54
X100.0Y-95.08
X100.0Y-97.62
X100.7Y-168.0
X101.0Y-126.0
X101.0Y-133.0
X101.0Y-140.0
X101.0Y-154.0
X103.5Y-154.0
X107.62Y-90.0
X107.62Y-92.54
X107.62Y-95.08
X107.62Y-97.62
X111.16Y-126.0
X111.16Y-133.0
X111.16Y-140.0
X114.0Y-126.0
X114.0Y-133.0
X114.0Y-140.0
X114.0Y-154.0
X116.0Y-154.0
X122.0Y-90.0
X122.0Y-92.54
X122.0Y-95.08
X122.0Y-97.62
X122.0Y-100.16
X122.0Y-102.7
X122.0Y-105.24
X122.0Y-107.78
X124.16Y-126.0
X124.16Y-133.0
X124.16Y-140.0
X127.0Y-126.0
X127.0Y-133.0
X127.0Y-140.0
X127.0Y-147.0
X127.0Y-154.0
X129.0Y-154.0
X129.5Y-147.0
X129.62Y-90.0
X129.62Y-92.54
X129.62Y-95.08
X129.62Y-97.62
X129.62Y-100.16
X129.62Y-102.7
X129.62Y-105.24
X129.62Y-107.78
X137.16Y-126.0
X137.16Y-133.0
X137.16Y-140.0
X140.0Y-126.0
X140.0Y-133.0
X140.0Y-140.0
X140.0Y-147.0
X140.0Y-154.0
X142.0Y-147.0
X142.0Y-154.0
X150.16Y-126.0
X150.16Y-133.0
X150.16Y-140.0
X152.0Y-90.0
X152.0Y-92.54
X152.0Y-95.08
X152.0Y-97.62
X152.0Y-100.16
X152.0Y-102.7
X152.0Y-105.24
X153.0Y-126.0
X153.0Y-133.0
X153.0Y-140.0
X153.0Y-147.0
X153.0Y-154.0
X155.0Y-147.0
X155.0Y-154.0
X159.62Y-90.0
X159.62Y-92.54
X159.62Y-95.08
X159.62Y-97.62
X159.62Y-100.16
X159.62Y-102.7
X159.62Y-105.24
X163.16Y-126.0
X163.16Y-133.0
X163.16Y-140.0
X166.0Y-126.0
X166.0Y-133.0
X166.0Y-140.0
X166.0Y-147.0
X166.0Y-154.0
X168.0Y-147.0
X168.0Y-154.0
X176.16Y-126.0
X176.16Y-133.0
X176.16Y-140.0
T4
X130.0Y-72.0
X132.54Y-72.0
T5
X88.0Y-161.0
X88.0Y-163.54
X110.0Y-72.1
X110.0Y-74.6
X110.0Y-77.1
X150.0Y-72.0
X150.0Y-74.5
X150.0Y-77.0
T6
X120.0Y-113.5
X120.0Y-121.0
X135.26Y-113.5
X135.26Y-121.0
X140.3Y-113.5
X140.3Y-121.0
X145.34Y-113.5
X145.34Y-121.0
T7
X165.0Y-88.0
X165.0Y-104.23
X177.7Y-88.0
X177.7Y-104.23
T8
X83.0Y-90.0
X83.0Y-101.43
X89.35Y-90.0
X89.35Y-101.43
X95.7Y-90.0
X95.7Y-101.43
X126.19Y-174.96
X132.54Y-172.42
T9
X116.85Y-70.2G85X117.15Y-70.2
G05
X116.85Y-79.0G85X117.15Y-79.0
G05
X156.85Y-70.1G85X157.15Y-70.1
G05
X156.85Y-78.9G85X157.15Y-78.9
G05
M30
